M48
INCH,TZ
T1C0.020
T2C0.031
T3C0.039
T4C0.040
T5C0.043
T6C0.043
%
G90
G05
T1
X38600Y-31700
X38600Y-32700
X39500Y-31700
X39500Y-32700
X41300Y-31700
X41300Y-32700
X42500Y-31700
X42500Y-32700
X44300Y-31700
X44300Y-32700
X45200Y-31700
X45200Y-32700
T2
X37400Y-27700
X37400Y-31700
X37400Y-32700
X37400Y-36700
X40400Y-28700
X40400Y-29700
X40400Y-30700
X40400Y-31700
X40400Y-32700
X40400Y-33700
X40400Y-34700
X40400Y-35700
X41000Y-26350
X42000Y-26350
X43000Y-26350
X43400Y-28700
X43400Y-29700
X43400Y-30700
X43400Y-31700
X43400Y-32700
X43400Y-33700
X43400Y-34700
X43400Y-35700
X45150Y-26700
X45150Y-30700
X45150Y-33700
X45150Y-37700
X46900Y-28400
X46900Y-29400
X46900Y-30400
X46900Y-34600
X46900Y-35600
X46900Y-36600
X49900Y-28400
X49900Y-29400
X49900Y-30400
X49900Y-34600
X49900Y-35600
X49900Y-36600
X52100Y-28250
X52100Y-32250
X52100Y-33300
X52100Y-37300
X54900Y-26800
X54900Y-28300
X58900Y-26800
X58900Y-28300
T3
X26800Y-37450
X48250Y-24950
X50425Y-24950
X52600Y-24950
T4
X34128Y-21106
X36829Y-20555
X37329Y-21653
X37927Y-20555
X38427Y-21653
X38978Y-20555
X39526Y-21653
X40077Y-20555
X40628Y-21653
X41179Y-20555
X41726Y-21653
X42278Y-20555
X42726Y-21653
X43376Y-20555
X43876Y-21653
X44427Y-20555
X44978Y-21653
X45526Y-20555
X46077Y-21653
X46628Y-20555
X47175Y-21653
X47726Y-20555
X48226Y-21653
X48829Y-20555
X49329Y-21653
X49876Y-20555
X50427Y-21653
X50978Y-20555
X51526Y-21653
X52077Y-20555
X52628Y-21653
X53179Y-20555
X53679Y-21653
X54278Y-20555
X54778Y-21653
X55329Y-20555
X55876Y-21653
X56427Y-20555
X59128Y-21106
T5
X26825Y-32975
X26825Y-33975
X26825Y-34975
X26825Y-35975
T6
X30500Y-31250
X30500Y-32950
X30500Y-34650
X30500Y-36350
X34500Y-31250
X34500Y-32950
X34500Y-34650
X34500Y-36350
X54450Y-30341
X54450Y-32900
X54450Y-34841
X54450Y-37400
X56222Y-30341
X56222Y-32900
X56222Y-34841
X56222Y-37400
T0
M30
