G04 #@! TF.FileFunction,Copper,L2,Bot,Signal*
%FSLAX46Y46*%
G04 Gerber Fmt 4.6, Leading zero omitted, Abs format (unit mm)*
G04 Created by KiCad (PCBNEW 4.0.6+dfsg1-1) date Sun Dec 10 15:34:36 2017*
%MOMM*%
%LPD*%
G01*
G04 APERTURE LIST*
%ADD10C,1.000000*%
%ADD11C,2.000000*%
%ADD12R,2.000000X2.000000*%
%ADD13C,1.000000*%
%ADD14O,1.998980X1.998980*%
%ADD15R,1.998980X1.998980*%
%ADD16C,1.520000*%
%ADD17R,1.520000X1.520000*%
%ADD18R,1.600000X1.600000*%
%ADD19O,1.600000X1.600000*%
%ADD20R,2.200000X2.200000*%
%ADD21O,2.200000X2.200000*%
%ADD22R,1.700000X1.700000*%
%ADD23C,1.600000*%
%ADD24C,0.635000*%
%ADD25C,0.254000*%
G04 APERTURE END LIST*
D10*
D11*
X86685001Y-53609500D03*
X150185001Y-53609500D03*
D12*
X143325001Y-52209500D03*
D11*
X140535001Y-52209500D03*
X137865001Y-52209500D03*
X135075001Y-52209500D03*
X132275001Y-52209500D03*
X129485001Y-52209500D03*
X126685001Y-52209500D03*
X124025001Y-52209500D03*
X121225001Y-52209500D03*
X118435001Y-52209500D03*
X115635001Y-52209500D03*
X112845001Y-52209500D03*
X110175001Y-52209500D03*
X107385001Y-52209500D03*
X104595001Y-52209500D03*
X101795001Y-52209500D03*
X99005001Y-52209500D03*
X96335001Y-52209500D03*
X93545001Y-52209500D03*
X141925001Y-54999500D03*
X139135001Y-54999500D03*
X136345001Y-54999500D03*
X133675001Y-54999500D03*
X130875001Y-54999500D03*
X128085001Y-54999500D03*
X125295001Y-54999500D03*
X122495001Y-54999500D03*
X119825001Y-54999500D03*
X117035001Y-54999500D03*
X114245001Y-54999500D03*
X111445001Y-54999500D03*
X108525001Y-54999500D03*
X105985001Y-54999500D03*
X103195001Y-54999500D03*
X100395001Y-54999500D03*
X97605001Y-54999500D03*
X94815001Y-54999500D03*
D13*
X100330000Y-80518000D03*
X100330000Y-83058000D03*
X98044000Y-80518000D03*
X98044000Y-83058000D03*
X104902000Y-80518000D03*
X104902000Y-83058000D03*
X107950000Y-80518000D03*
X107950000Y-83058000D03*
X112522000Y-83058000D03*
X112522000Y-80518000D03*
X114808000Y-83058000D03*
D14*
X68135500Y-91376500D03*
D15*
X68135500Y-83756500D03*
D14*
X68135500Y-86296500D03*
X68135500Y-88836500D03*
D11*
X142803000Y-94996000D03*
X138303000Y-94996000D03*
X142803000Y-88496000D03*
X138303000Y-88496000D03*
X142803000Y-83566000D03*
X138303000Y-83566000D03*
X142803000Y-77066000D03*
X138303000Y-77066000D03*
D16*
X106680000Y-66929000D03*
X109220000Y-66929000D03*
D17*
X104140000Y-66929000D03*
D18*
X126746000Y-77216000D03*
D19*
X119126000Y-72136000D03*
X126746000Y-74676000D03*
X119126000Y-74676000D03*
X126746000Y-72136000D03*
X119126000Y-77216000D03*
D18*
X126746000Y-92964000D03*
D19*
X119126000Y-87884000D03*
X126746000Y-90424000D03*
X119126000Y-90424000D03*
X126746000Y-87884000D03*
X119126000Y-92964000D03*
D20*
X77470000Y-88011000D03*
D21*
X87630000Y-88011000D03*
D20*
X77470000Y-79375000D03*
D21*
X87630000Y-79375000D03*
D20*
X77470000Y-92329000D03*
D21*
X87630000Y-92329000D03*
D20*
X77470000Y-83693000D03*
D21*
X87630000Y-83693000D03*
D22*
X128079500Y-63373000D03*
X122555000Y-63373000D03*
X68072000Y-95123000D03*
D23*
X139446000Y-68072000D03*
D19*
X149606000Y-68072000D03*
D23*
X139446000Y-71882000D03*
D19*
X149606000Y-71882000D03*
D23*
X132334000Y-81915000D03*
D19*
X132334000Y-71755000D03*
D23*
X132334000Y-94742000D03*
D19*
X132334000Y-84582000D03*
D23*
X114681000Y-77978000D03*
D19*
X114681000Y-67818000D03*
D23*
X94996000Y-70358000D03*
D19*
X94996000Y-80518000D03*
D23*
X114681000Y-95758000D03*
D19*
X114681000Y-85598000D03*
D23*
X94996000Y-93218000D03*
D19*
X94996000Y-83058000D03*
D18*
X102616000Y-72898000D03*
D19*
X110236000Y-90678000D03*
X102616000Y-75438000D03*
X110236000Y-88138000D03*
X102616000Y-77978000D03*
X110236000Y-85598000D03*
X102616000Y-80518000D03*
X110236000Y-83058000D03*
X102616000Y-83058000D03*
X110236000Y-80518000D03*
X102616000Y-85598000D03*
X110236000Y-77978000D03*
X102616000Y-88138000D03*
X110236000Y-75438000D03*
X102616000Y-90678000D03*
X110236000Y-72898000D03*
D13*
X114808000Y-80518000D03*
D22*
X133604000Y-63373000D03*
D24*
X128079500Y-63373000D02*
X125984000Y-63373000D01*
X114245001Y-57222001D02*
X114245001Y-54999500D01*
X116459000Y-59436000D02*
X114245001Y-57222001D01*
X122047000Y-59436000D02*
X116459000Y-59436000D01*
X125984000Y-63373000D02*
X122047000Y-59436000D01*
X139446000Y-68072000D02*
X127254000Y-68072000D01*
X127254000Y-68072000D02*
X122555000Y-63373000D01*
X104140000Y-66929000D02*
X104140000Y-66294000D01*
X104140000Y-66294000D02*
X107061000Y-63373000D01*
X107061000Y-63373000D02*
X122555000Y-63373000D01*
D25*
G36*
X93780176Y-69544077D02*
X93561250Y-70071309D01*
X93560752Y-70642187D01*
X93778757Y-71169800D01*
X94182077Y-71573824D01*
X94709309Y-71792750D01*
X95280187Y-71793248D01*
X95807800Y-71575243D01*
X96211824Y-71171923D01*
X96430750Y-70644691D01*
X96431248Y-70073813D01*
X96213243Y-69546200D01*
X96009399Y-69342000D01*
X121285000Y-69342000D01*
X121285000Y-98171000D01*
X65151000Y-98171000D01*
X65151000Y-94273000D01*
X66574560Y-94273000D01*
X66574560Y-95973000D01*
X66618838Y-96208317D01*
X66757910Y-96424441D01*
X66970110Y-96569431D01*
X67222000Y-96620440D01*
X68922000Y-96620440D01*
X69157317Y-96576162D01*
X69373441Y-96437090D01*
X69518431Y-96224890D01*
X69555429Y-96042187D01*
X113245752Y-96042187D01*
X113463757Y-96569800D01*
X113867077Y-96973824D01*
X114394309Y-97192750D01*
X114965187Y-97193248D01*
X115492800Y-96975243D01*
X115896824Y-96571923D01*
X116115750Y-96044691D01*
X116116248Y-95473813D01*
X115898243Y-94946200D01*
X115494923Y-94542176D01*
X114967691Y-94323250D01*
X114396813Y-94322752D01*
X113869200Y-94540757D01*
X113465176Y-94944077D01*
X113246250Y-95471309D01*
X113245752Y-96042187D01*
X69555429Y-96042187D01*
X69569440Y-95973000D01*
X69569440Y-94273000D01*
X69525162Y-94037683D01*
X69386090Y-93821559D01*
X69173890Y-93676569D01*
X68922000Y-93625560D01*
X67222000Y-93625560D01*
X66986683Y-93669838D01*
X66770559Y-93808910D01*
X66625569Y-94021110D01*
X66574560Y-94273000D01*
X65151000Y-94273000D01*
X65151000Y-91344478D01*
X66501010Y-91344478D01*
X66501010Y-91408522D01*
X66625428Y-92034014D01*
X66979741Y-92564281D01*
X67510008Y-92918594D01*
X68135500Y-93043012D01*
X68760992Y-92918594D01*
X69291259Y-92564281D01*
X69645572Y-92034014D01*
X69769990Y-91408522D01*
X69769990Y-91344478D01*
X69747021Y-91229000D01*
X75722560Y-91229000D01*
X75722560Y-93429000D01*
X75766838Y-93664317D01*
X75905910Y-93880441D01*
X76118110Y-94025431D01*
X76370000Y-94076440D01*
X78570000Y-94076440D01*
X78805317Y-94032162D01*
X79021441Y-93893090D01*
X79166431Y-93680890D01*
X79217440Y-93429000D01*
X79217440Y-92329000D01*
X85861009Y-92329000D01*
X85993078Y-92992956D01*
X86369179Y-93555830D01*
X86932053Y-93931931D01*
X87596009Y-94064000D01*
X87663991Y-94064000D01*
X88327947Y-93931931D01*
X88890821Y-93555830D01*
X88926664Y-93502187D01*
X93560752Y-93502187D01*
X93778757Y-94029800D01*
X94182077Y-94433824D01*
X94709309Y-94652750D01*
X95280187Y-94653248D01*
X95807800Y-94435243D01*
X96211824Y-94031923D01*
X96430750Y-93504691D01*
X96431248Y-92933813D01*
X96213243Y-92406200D01*
X95809923Y-92002176D01*
X95282691Y-91783250D01*
X94711813Y-91782752D01*
X94184200Y-92000757D01*
X93780176Y-92404077D01*
X93561250Y-92931309D01*
X93560752Y-93502187D01*
X88926664Y-93502187D01*
X89266922Y-92992956D01*
X89398991Y-92329000D01*
X89266922Y-91665044D01*
X88890821Y-91102170D01*
X88327947Y-90726069D01*
X87663991Y-90594000D01*
X87596009Y-90594000D01*
X86932053Y-90726069D01*
X86369179Y-91102170D01*
X85993078Y-91665044D01*
X85861009Y-92329000D01*
X79217440Y-92329000D01*
X79217440Y-91229000D01*
X79173162Y-90993683D01*
X79034090Y-90777559D01*
X78821890Y-90632569D01*
X78570000Y-90581560D01*
X76370000Y-90581560D01*
X76134683Y-90625838D01*
X75918559Y-90764910D01*
X75773569Y-90977110D01*
X75722560Y-91229000D01*
X69747021Y-91229000D01*
X69645572Y-90718986D01*
X69291259Y-90188719D01*
X69142200Y-90089121D01*
X69458568Y-89796226D01*
X69725127Y-89216855D01*
X69606307Y-88963500D01*
X68262500Y-88963500D01*
X68262500Y-88983500D01*
X68008500Y-88983500D01*
X68008500Y-88963500D01*
X66664693Y-88963500D01*
X66545873Y-89216855D01*
X66812432Y-89796226D01*
X67128800Y-90089121D01*
X66979741Y-90188719D01*
X66625428Y-90718986D01*
X66501010Y-91344478D01*
X65151000Y-91344478D01*
X65151000Y-82757010D01*
X66488570Y-82757010D01*
X66488570Y-84755990D01*
X66532848Y-84991307D01*
X66671920Y-85207431D01*
X66837973Y-85320890D01*
X66625428Y-85638986D01*
X66501010Y-86264478D01*
X66501010Y-86328522D01*
X66625428Y-86954014D01*
X66979741Y-87484281D01*
X67128800Y-87583879D01*
X66812432Y-87876774D01*
X66545873Y-88456145D01*
X66664693Y-88709500D01*
X68008500Y-88709500D01*
X68008500Y-88689500D01*
X68262500Y-88689500D01*
X68262500Y-88709500D01*
X69606307Y-88709500D01*
X69725127Y-88456145D01*
X69458568Y-87876774D01*
X69142200Y-87583879D01*
X69291259Y-87484281D01*
X69645572Y-86954014D01*
X69654128Y-86911000D01*
X75722560Y-86911000D01*
X75722560Y-89111000D01*
X75766838Y-89346317D01*
X75905910Y-89562441D01*
X76118110Y-89707431D01*
X76370000Y-89758440D01*
X78570000Y-89758440D01*
X78805317Y-89714162D01*
X79021441Y-89575090D01*
X79166431Y-89362890D01*
X79217440Y-89111000D01*
X79217440Y-88011000D01*
X85861009Y-88011000D01*
X85993078Y-88674956D01*
X86369179Y-89237830D01*
X86932053Y-89613931D01*
X87596009Y-89746000D01*
X87663991Y-89746000D01*
X88327947Y-89613931D01*
X88890821Y-89237830D01*
X89266922Y-88674956D01*
X89398991Y-88011000D01*
X89266922Y-87347044D01*
X88890821Y-86784170D01*
X88327947Y-86408069D01*
X87663991Y-86276000D01*
X87596009Y-86276000D01*
X86932053Y-86408069D01*
X86369179Y-86784170D01*
X85993078Y-87347044D01*
X85861009Y-88011000D01*
X79217440Y-88011000D01*
X79217440Y-86911000D01*
X79173162Y-86675683D01*
X79034090Y-86459559D01*
X78821890Y-86314569D01*
X78570000Y-86263560D01*
X76370000Y-86263560D01*
X76134683Y-86307838D01*
X75918559Y-86446910D01*
X75773569Y-86659110D01*
X75722560Y-86911000D01*
X69654128Y-86911000D01*
X69769990Y-86328522D01*
X69769990Y-86264478D01*
X69645572Y-85638986D01*
X69618187Y-85598000D01*
X101152887Y-85598000D01*
X101262120Y-86147151D01*
X101573189Y-86612698D01*
X101955275Y-86868000D01*
X101573189Y-87123302D01*
X101262120Y-87588849D01*
X101152887Y-88138000D01*
X101262120Y-88687151D01*
X101573189Y-89152698D01*
X101955275Y-89408000D01*
X101573189Y-89663302D01*
X101262120Y-90128849D01*
X101152887Y-90678000D01*
X101262120Y-91227151D01*
X101573189Y-91692698D01*
X102038736Y-92003767D01*
X102587887Y-92113000D01*
X102644113Y-92113000D01*
X103193264Y-92003767D01*
X103658811Y-91692698D01*
X103969880Y-91227151D01*
X104079113Y-90678000D01*
X103969880Y-90128849D01*
X103658811Y-89663302D01*
X103276725Y-89408000D01*
X103658811Y-89152698D01*
X103969880Y-88687151D01*
X104079113Y-88138000D01*
X103969880Y-87588849D01*
X103658811Y-87123302D01*
X103276725Y-86868000D01*
X103658811Y-86612698D01*
X103969880Y-86147151D01*
X104079113Y-85598000D01*
X108772887Y-85598000D01*
X108882120Y-86147151D01*
X109193189Y-86612698D01*
X109575275Y-86868000D01*
X109193189Y-87123302D01*
X108882120Y-87588849D01*
X108772887Y-88138000D01*
X108882120Y-88687151D01*
X109193189Y-89152698D01*
X109575275Y-89408000D01*
X109193189Y-89663302D01*
X108882120Y-90128849D01*
X108772887Y-90678000D01*
X108882120Y-91227151D01*
X109193189Y-91692698D01*
X109658736Y-92003767D01*
X110207887Y-92113000D01*
X110264113Y-92113000D01*
X110813264Y-92003767D01*
X111278811Y-91692698D01*
X111589880Y-91227151D01*
X111699113Y-90678000D01*
X111648590Y-90424000D01*
X117662887Y-90424000D01*
X117772120Y-90973151D01*
X118083189Y-91438698D01*
X118465275Y-91694000D01*
X118083189Y-91949302D01*
X117772120Y-92414849D01*
X117662887Y-92964000D01*
X117772120Y-93513151D01*
X118083189Y-93978698D01*
X118548736Y-94289767D01*
X119097887Y-94399000D01*
X119154113Y-94399000D01*
X119703264Y-94289767D01*
X120168811Y-93978698D01*
X120479880Y-93513151D01*
X120589113Y-92964000D01*
X120479880Y-92414849D01*
X120168811Y-91949302D01*
X119786725Y-91694000D01*
X120168811Y-91438698D01*
X120479880Y-90973151D01*
X120589113Y-90424000D01*
X120479880Y-89874849D01*
X120168811Y-89409302D01*
X119764297Y-89139014D01*
X119981134Y-89036389D01*
X120357041Y-88621423D01*
X120517904Y-88233039D01*
X120395915Y-88011000D01*
X119253000Y-88011000D01*
X119253000Y-88031000D01*
X118999000Y-88031000D01*
X118999000Y-88011000D01*
X117856085Y-88011000D01*
X117734096Y-88233039D01*
X117894959Y-88621423D01*
X118270866Y-89036389D01*
X118487703Y-89139014D01*
X118083189Y-89409302D01*
X117772120Y-89874849D01*
X117662887Y-90424000D01*
X111648590Y-90424000D01*
X111589880Y-90128849D01*
X111278811Y-89663302D01*
X110896725Y-89408000D01*
X111278811Y-89152698D01*
X111589880Y-88687151D01*
X111699113Y-88138000D01*
X111589880Y-87588849D01*
X111553874Y-87534961D01*
X117734096Y-87534961D01*
X117856085Y-87757000D01*
X118999000Y-87757000D01*
X118999000Y-86613371D01*
X119253000Y-86613371D01*
X119253000Y-87757000D01*
X120395915Y-87757000D01*
X120517904Y-87534961D01*
X120357041Y-87146577D01*
X119981134Y-86731611D01*
X119475041Y-86492086D01*
X119253000Y-86613371D01*
X118999000Y-86613371D01*
X118776959Y-86492086D01*
X118270866Y-86731611D01*
X117894959Y-87146577D01*
X117734096Y-87534961D01*
X111553874Y-87534961D01*
X111278811Y-87123302D01*
X110896725Y-86868000D01*
X111278811Y-86612698D01*
X111589880Y-86147151D01*
X111699113Y-85598000D01*
X111693521Y-85569887D01*
X113246000Y-85569887D01*
X113246000Y-85626113D01*
X113355233Y-86175264D01*
X113666302Y-86640811D01*
X114131849Y-86951880D01*
X114681000Y-87061113D01*
X115230151Y-86951880D01*
X115695698Y-86640811D01*
X116006767Y-86175264D01*
X116116000Y-85626113D01*
X116116000Y-85569887D01*
X116006767Y-85020736D01*
X115695698Y-84555189D01*
X115230151Y-84244120D01*
X114681000Y-84134887D01*
X114131849Y-84244120D01*
X113666302Y-84555189D01*
X113355233Y-85020736D01*
X113246000Y-85569887D01*
X111693521Y-85569887D01*
X111589880Y-85048849D01*
X111278811Y-84583302D01*
X110874297Y-84313014D01*
X111091134Y-84210389D01*
X111467041Y-83795423D01*
X111627904Y-83407039D01*
X111505915Y-83185000D01*
X110363000Y-83185000D01*
X110363000Y-83205000D01*
X110109000Y-83205000D01*
X110109000Y-83185000D01*
X108966085Y-83185000D01*
X108844096Y-83407039D01*
X109004959Y-83795423D01*
X109380866Y-84210389D01*
X109597703Y-84313014D01*
X109193189Y-84583302D01*
X108882120Y-85048849D01*
X108772887Y-85598000D01*
X104079113Y-85598000D01*
X103969880Y-85048849D01*
X103658811Y-84583302D01*
X103254297Y-84313014D01*
X103471134Y-84210389D01*
X103847041Y-83795423D01*
X104007904Y-83407039D01*
X103885915Y-83185000D01*
X102743000Y-83185000D01*
X102743000Y-83205000D01*
X102489000Y-83205000D01*
X102489000Y-83185000D01*
X101346085Y-83185000D01*
X101224096Y-83407039D01*
X101384959Y-83795423D01*
X101760866Y-84210389D01*
X101977703Y-84313014D01*
X101573189Y-84583302D01*
X101262120Y-85048849D01*
X101152887Y-85598000D01*
X69618187Y-85598000D01*
X69432047Y-85319423D01*
X69586431Y-85220080D01*
X69731421Y-85007880D01*
X69782430Y-84755990D01*
X69782430Y-82757010D01*
X69751570Y-82593000D01*
X75722560Y-82593000D01*
X75722560Y-84793000D01*
X75766838Y-85028317D01*
X75905910Y-85244441D01*
X76118110Y-85389431D01*
X76370000Y-85440440D01*
X78570000Y-85440440D01*
X78805317Y-85396162D01*
X79021441Y-85257090D01*
X79166431Y-85044890D01*
X79217440Y-84793000D01*
X79217440Y-84089122D01*
X85940825Y-84089122D01*
X86155466Y-84607332D01*
X86617608Y-85102012D01*
X87233877Y-85382183D01*
X87503000Y-85264604D01*
X87503000Y-83820000D01*
X87757000Y-83820000D01*
X87757000Y-85264604D01*
X88026123Y-85382183D01*
X88642392Y-85102012D01*
X89104534Y-84607332D01*
X89319175Y-84089122D01*
X89201125Y-83820000D01*
X87757000Y-83820000D01*
X87503000Y-83820000D01*
X86058875Y-83820000D01*
X85940825Y-84089122D01*
X79217440Y-84089122D01*
X79217440Y-83296878D01*
X85940825Y-83296878D01*
X86058875Y-83566000D01*
X87503000Y-83566000D01*
X87503000Y-82121396D01*
X87757000Y-82121396D01*
X87757000Y-83566000D01*
X89201125Y-83566000D01*
X89270852Y-83407041D01*
X93604086Y-83407041D01*
X93843611Y-83913134D01*
X94258577Y-84289041D01*
X94646961Y-84449904D01*
X94869000Y-84327915D01*
X94869000Y-83185000D01*
X95123000Y-83185000D01*
X95123000Y-84327915D01*
X95345039Y-84449904D01*
X95733423Y-84289041D01*
X96148389Y-83913134D01*
X96387914Y-83407041D01*
X96266629Y-83185000D01*
X95123000Y-83185000D01*
X94869000Y-83185000D01*
X93725371Y-83185000D01*
X93604086Y-83407041D01*
X89270852Y-83407041D01*
X89319175Y-83296878D01*
X89104534Y-82778668D01*
X88642392Y-82283988D01*
X88026123Y-82003817D01*
X87757000Y-82121396D01*
X87503000Y-82121396D01*
X87233877Y-82003817D01*
X86617608Y-82283988D01*
X86155466Y-82778668D01*
X85940825Y-83296878D01*
X79217440Y-83296878D01*
X79217440Y-82593000D01*
X79173162Y-82357683D01*
X79034090Y-82141559D01*
X78821890Y-81996569D01*
X78570000Y-81945560D01*
X76370000Y-81945560D01*
X76134683Y-81989838D01*
X75918559Y-82128910D01*
X75773569Y-82341110D01*
X75722560Y-82593000D01*
X69751570Y-82593000D01*
X69738152Y-82521693D01*
X69599080Y-82305569D01*
X69386880Y-82160579D01*
X69134990Y-82109570D01*
X67136010Y-82109570D01*
X66900693Y-82153848D01*
X66684569Y-82292920D01*
X66539579Y-82505120D01*
X66488570Y-82757010D01*
X65151000Y-82757010D01*
X65151000Y-78275000D01*
X75722560Y-78275000D01*
X75722560Y-80475000D01*
X75766838Y-80710317D01*
X75905910Y-80926441D01*
X76118110Y-81071431D01*
X76370000Y-81122440D01*
X78570000Y-81122440D01*
X78805317Y-81078162D01*
X79021441Y-80939090D01*
X79166431Y-80726890D01*
X79217440Y-80475000D01*
X79217440Y-79771122D01*
X85940825Y-79771122D01*
X86155466Y-80289332D01*
X86617608Y-80784012D01*
X87233877Y-81064183D01*
X87503000Y-80946604D01*
X87503000Y-79502000D01*
X87757000Y-79502000D01*
X87757000Y-80946604D01*
X88026123Y-81064183D01*
X88459759Y-80867041D01*
X93604086Y-80867041D01*
X93843611Y-81373134D01*
X94258577Y-81749041D01*
X94352639Y-81788000D01*
X94258577Y-81826959D01*
X93843611Y-82202866D01*
X93604086Y-82708959D01*
X93725371Y-82931000D01*
X94869000Y-82931000D01*
X94869000Y-81788085D01*
X94868845Y-81788000D01*
X94869000Y-81787915D01*
X94869000Y-80645000D01*
X95123000Y-80645000D01*
X95123000Y-81787915D01*
X95123155Y-81788000D01*
X95123000Y-81788085D01*
X95123000Y-82931000D01*
X96266629Y-82931000D01*
X96387914Y-82708959D01*
X96148389Y-82202866D01*
X95733423Y-81826959D01*
X95639361Y-81788000D01*
X95733423Y-81749041D01*
X96148389Y-81373134D01*
X96387914Y-80867041D01*
X96387913Y-80867039D01*
X101224096Y-80867039D01*
X101384959Y-81255423D01*
X101760866Y-81670389D01*
X102009367Y-81788000D01*
X101760866Y-81905611D01*
X101384959Y-82320577D01*
X101224096Y-82708961D01*
X101346085Y-82931000D01*
X102489000Y-82931000D01*
X102489000Y-80645000D01*
X102743000Y-80645000D01*
X102743000Y-82931000D01*
X103885915Y-82931000D01*
X104007904Y-82708961D01*
X103847041Y-82320577D01*
X103471134Y-81905611D01*
X103222633Y-81788000D01*
X103471134Y-81670389D01*
X103847041Y-81255423D01*
X104007904Y-80867039D01*
X108844096Y-80867039D01*
X109004959Y-81255423D01*
X109380866Y-81670389D01*
X109629367Y-81788000D01*
X109380866Y-81905611D01*
X109004959Y-82320577D01*
X108844096Y-82708961D01*
X108966085Y-82931000D01*
X110109000Y-82931000D01*
X110109000Y-80645000D01*
X110363000Y-80645000D01*
X110363000Y-82931000D01*
X111505915Y-82931000D01*
X111627904Y-82708961D01*
X111467041Y-82320577D01*
X111091134Y-81905611D01*
X110842633Y-81788000D01*
X111091134Y-81670389D01*
X111467041Y-81255423D01*
X111627904Y-80867039D01*
X111505915Y-80645000D01*
X110363000Y-80645000D01*
X110109000Y-80645000D01*
X108966085Y-80645000D01*
X108844096Y-80867039D01*
X104007904Y-80867039D01*
X103885915Y-80645000D01*
X102743000Y-80645000D01*
X102489000Y-80645000D01*
X101346085Y-80645000D01*
X101224096Y-80867039D01*
X96387913Y-80867039D01*
X96266629Y-80645000D01*
X95123000Y-80645000D01*
X94869000Y-80645000D01*
X93725371Y-80645000D01*
X93604086Y-80867041D01*
X88459759Y-80867041D01*
X88642392Y-80784012D01*
X89104534Y-80289332D01*
X89154392Y-80168959D01*
X93604086Y-80168959D01*
X93725371Y-80391000D01*
X94869000Y-80391000D01*
X94869000Y-79248085D01*
X95123000Y-79248085D01*
X95123000Y-80391000D01*
X96266629Y-80391000D01*
X96387914Y-80168959D01*
X96148389Y-79662866D01*
X95733423Y-79286959D01*
X95345039Y-79126096D01*
X95123000Y-79248085D01*
X94869000Y-79248085D01*
X94646961Y-79126096D01*
X94258577Y-79286959D01*
X93843611Y-79662866D01*
X93604086Y-80168959D01*
X89154392Y-80168959D01*
X89319175Y-79771122D01*
X89201125Y-79502000D01*
X87757000Y-79502000D01*
X87503000Y-79502000D01*
X86058875Y-79502000D01*
X85940825Y-79771122D01*
X79217440Y-79771122D01*
X79217440Y-78978878D01*
X85940825Y-78978878D01*
X86058875Y-79248000D01*
X87503000Y-79248000D01*
X87503000Y-77803396D01*
X87757000Y-77803396D01*
X87757000Y-79248000D01*
X89201125Y-79248000D01*
X89319175Y-78978878D01*
X89104534Y-78460668D01*
X88642392Y-77965988D01*
X88026123Y-77685817D01*
X87757000Y-77803396D01*
X87503000Y-77803396D01*
X87233877Y-77685817D01*
X86617608Y-77965988D01*
X86155466Y-78460668D01*
X85940825Y-78978878D01*
X79217440Y-78978878D01*
X79217440Y-78275000D01*
X79173162Y-78039683D01*
X79034090Y-77823559D01*
X78821890Y-77678569D01*
X78570000Y-77627560D01*
X76370000Y-77627560D01*
X76134683Y-77671838D01*
X75918559Y-77810910D01*
X75773569Y-78023110D01*
X75722560Y-78275000D01*
X65151000Y-78275000D01*
X65151000Y-75438000D01*
X101152887Y-75438000D01*
X101262120Y-75987151D01*
X101573189Y-76452698D01*
X101955275Y-76708000D01*
X101573189Y-76963302D01*
X101262120Y-77428849D01*
X101152887Y-77978000D01*
X101262120Y-78527151D01*
X101573189Y-78992698D01*
X101977703Y-79262986D01*
X101760866Y-79365611D01*
X101384959Y-79780577D01*
X101224096Y-80168961D01*
X101346085Y-80391000D01*
X102489000Y-80391000D01*
X102489000Y-80371000D01*
X102743000Y-80371000D01*
X102743000Y-80391000D01*
X103885915Y-80391000D01*
X104007904Y-80168961D01*
X103847041Y-79780577D01*
X103471134Y-79365611D01*
X103254297Y-79262986D01*
X103658811Y-78992698D01*
X103969880Y-78527151D01*
X104079113Y-77978000D01*
X103969880Y-77428849D01*
X103658811Y-76963302D01*
X103276725Y-76708000D01*
X103658811Y-76452698D01*
X103969880Y-75987151D01*
X104079113Y-75438000D01*
X103969880Y-74888849D01*
X103658811Y-74423302D01*
X103514535Y-74326899D01*
X103651317Y-74301162D01*
X103867441Y-74162090D01*
X104012431Y-73949890D01*
X104063440Y-73698000D01*
X104063440Y-72898000D01*
X108772887Y-72898000D01*
X108882120Y-73447151D01*
X109193189Y-73912698D01*
X109575275Y-74168000D01*
X109193189Y-74423302D01*
X108882120Y-74888849D01*
X108772887Y-75438000D01*
X108882120Y-75987151D01*
X109193189Y-76452698D01*
X109575275Y-76708000D01*
X109193189Y-76963302D01*
X108882120Y-77428849D01*
X108772887Y-77978000D01*
X108882120Y-78527151D01*
X109193189Y-78992698D01*
X109597703Y-79262986D01*
X109380866Y-79365611D01*
X109004959Y-79780577D01*
X108844096Y-80168961D01*
X108966085Y-80391000D01*
X110109000Y-80391000D01*
X110109000Y-80371000D01*
X110363000Y-80371000D01*
X110363000Y-80391000D01*
X111505915Y-80391000D01*
X111627904Y-80168961D01*
X111467041Y-79780577D01*
X111091134Y-79365611D01*
X110874297Y-79262986D01*
X111278811Y-78992698D01*
X111589880Y-78527151D01*
X111642584Y-78262187D01*
X113245752Y-78262187D01*
X113463757Y-78789800D01*
X113867077Y-79193824D01*
X114394309Y-79412750D01*
X114965187Y-79413248D01*
X115492800Y-79195243D01*
X115896824Y-78791923D01*
X116115750Y-78264691D01*
X116116248Y-77693813D01*
X115898243Y-77166200D01*
X115494923Y-76762176D01*
X114967691Y-76543250D01*
X114396813Y-76542752D01*
X113869200Y-76760757D01*
X113465176Y-77164077D01*
X113246250Y-77691309D01*
X113245752Y-78262187D01*
X111642584Y-78262187D01*
X111699113Y-77978000D01*
X111589880Y-77428849D01*
X111278811Y-76963302D01*
X110896725Y-76708000D01*
X111278811Y-76452698D01*
X111589880Y-75987151D01*
X111699113Y-75438000D01*
X111589880Y-74888849D01*
X111447659Y-74676000D01*
X117662887Y-74676000D01*
X117772120Y-75225151D01*
X118083189Y-75690698D01*
X118465275Y-75946000D01*
X118083189Y-76201302D01*
X117772120Y-76666849D01*
X117662887Y-77216000D01*
X117772120Y-77765151D01*
X118083189Y-78230698D01*
X118548736Y-78541767D01*
X119097887Y-78651000D01*
X119154113Y-78651000D01*
X119703264Y-78541767D01*
X120168811Y-78230698D01*
X120479880Y-77765151D01*
X120589113Y-77216000D01*
X120479880Y-76666849D01*
X120168811Y-76201302D01*
X119786725Y-75946000D01*
X120168811Y-75690698D01*
X120479880Y-75225151D01*
X120589113Y-74676000D01*
X120479880Y-74126849D01*
X120168811Y-73661302D01*
X119764297Y-73391014D01*
X119981134Y-73288389D01*
X120357041Y-72873423D01*
X120517904Y-72485039D01*
X120395915Y-72263000D01*
X119253000Y-72263000D01*
X119253000Y-72283000D01*
X118999000Y-72283000D01*
X118999000Y-72263000D01*
X117856085Y-72263000D01*
X117734096Y-72485039D01*
X117894959Y-72873423D01*
X118270866Y-73288389D01*
X118487703Y-73391014D01*
X118083189Y-73661302D01*
X117772120Y-74126849D01*
X117662887Y-74676000D01*
X111447659Y-74676000D01*
X111278811Y-74423302D01*
X110896725Y-74168000D01*
X111278811Y-73912698D01*
X111589880Y-73447151D01*
X111699113Y-72898000D01*
X111589880Y-72348849D01*
X111278811Y-71883302D01*
X111134627Y-71786961D01*
X117734096Y-71786961D01*
X117856085Y-72009000D01*
X118999000Y-72009000D01*
X118999000Y-70865371D01*
X119253000Y-70865371D01*
X119253000Y-72009000D01*
X120395915Y-72009000D01*
X120517904Y-71786961D01*
X120357041Y-71398577D01*
X119981134Y-70983611D01*
X119475041Y-70744086D01*
X119253000Y-70865371D01*
X118999000Y-70865371D01*
X118776959Y-70744086D01*
X118270866Y-70983611D01*
X117894959Y-71398577D01*
X117734096Y-71786961D01*
X111134627Y-71786961D01*
X110813264Y-71572233D01*
X110264113Y-71463000D01*
X110207887Y-71463000D01*
X109658736Y-71572233D01*
X109193189Y-71883302D01*
X108882120Y-72348849D01*
X108772887Y-72898000D01*
X104063440Y-72898000D01*
X104063440Y-72098000D01*
X104019162Y-71862683D01*
X103880090Y-71646559D01*
X103667890Y-71501569D01*
X103416000Y-71450560D01*
X101816000Y-71450560D01*
X101580683Y-71494838D01*
X101364559Y-71633910D01*
X101219569Y-71846110D01*
X101168560Y-72098000D01*
X101168560Y-73698000D01*
X101212838Y-73933317D01*
X101351910Y-74149441D01*
X101564110Y-74294431D01*
X101719089Y-74325815D01*
X101573189Y-74423302D01*
X101262120Y-74888849D01*
X101152887Y-75438000D01*
X65151000Y-75438000D01*
X65151000Y-69342000D01*
X93982606Y-69342000D01*
X93780176Y-69544077D01*
X93780176Y-69544077D01*
G37*
X93780176Y-69544077D02*
X93561250Y-70071309D01*
X93560752Y-70642187D01*
X93778757Y-71169800D01*
X94182077Y-71573824D01*
X94709309Y-71792750D01*
X95280187Y-71793248D01*
X95807800Y-71575243D01*
X96211824Y-71171923D01*
X96430750Y-70644691D01*
X96431248Y-70073813D01*
X96213243Y-69546200D01*
X96009399Y-69342000D01*
X121285000Y-69342000D01*
X121285000Y-98171000D01*
X65151000Y-98171000D01*
X65151000Y-94273000D01*
X66574560Y-94273000D01*
X66574560Y-95973000D01*
X66618838Y-96208317D01*
X66757910Y-96424441D01*
X66970110Y-96569431D01*
X67222000Y-96620440D01*
X68922000Y-96620440D01*
X69157317Y-96576162D01*
X69373441Y-96437090D01*
X69518431Y-96224890D01*
X69555429Y-96042187D01*
X113245752Y-96042187D01*
X113463757Y-96569800D01*
X113867077Y-96973824D01*
X114394309Y-97192750D01*
X114965187Y-97193248D01*
X115492800Y-96975243D01*
X115896824Y-96571923D01*
X116115750Y-96044691D01*
X116116248Y-95473813D01*
X115898243Y-94946200D01*
X115494923Y-94542176D01*
X114967691Y-94323250D01*
X114396813Y-94322752D01*
X113869200Y-94540757D01*
X113465176Y-94944077D01*
X113246250Y-95471309D01*
X113245752Y-96042187D01*
X69555429Y-96042187D01*
X69569440Y-95973000D01*
X69569440Y-94273000D01*
X69525162Y-94037683D01*
X69386090Y-93821559D01*
X69173890Y-93676569D01*
X68922000Y-93625560D01*
X67222000Y-93625560D01*
X66986683Y-93669838D01*
X66770559Y-93808910D01*
X66625569Y-94021110D01*
X66574560Y-94273000D01*
X65151000Y-94273000D01*
X65151000Y-91344478D01*
X66501010Y-91344478D01*
X66501010Y-91408522D01*
X66625428Y-92034014D01*
X66979741Y-92564281D01*
X67510008Y-92918594D01*
X68135500Y-93043012D01*
X68760992Y-92918594D01*
X69291259Y-92564281D01*
X69645572Y-92034014D01*
X69769990Y-91408522D01*
X69769990Y-91344478D01*
X69747021Y-91229000D01*
X75722560Y-91229000D01*
X75722560Y-93429000D01*
X75766838Y-93664317D01*
X75905910Y-93880441D01*
X76118110Y-94025431D01*
X76370000Y-94076440D01*
X78570000Y-94076440D01*
X78805317Y-94032162D01*
X79021441Y-93893090D01*
X79166431Y-93680890D01*
X79217440Y-93429000D01*
X79217440Y-92329000D01*
X85861009Y-92329000D01*
X85993078Y-92992956D01*
X86369179Y-93555830D01*
X86932053Y-93931931D01*
X87596009Y-94064000D01*
X87663991Y-94064000D01*
X88327947Y-93931931D01*
X88890821Y-93555830D01*
X88926664Y-93502187D01*
X93560752Y-93502187D01*
X93778757Y-94029800D01*
X94182077Y-94433824D01*
X94709309Y-94652750D01*
X95280187Y-94653248D01*
X95807800Y-94435243D01*
X96211824Y-94031923D01*
X96430750Y-93504691D01*
X96431248Y-92933813D01*
X96213243Y-92406200D01*
X95809923Y-92002176D01*
X95282691Y-91783250D01*
X94711813Y-91782752D01*
X94184200Y-92000757D01*
X93780176Y-92404077D01*
X93561250Y-92931309D01*
X93560752Y-93502187D01*
X88926664Y-93502187D01*
X89266922Y-92992956D01*
X89398991Y-92329000D01*
X89266922Y-91665044D01*
X88890821Y-91102170D01*
X88327947Y-90726069D01*
X87663991Y-90594000D01*
X87596009Y-90594000D01*
X86932053Y-90726069D01*
X86369179Y-91102170D01*
X85993078Y-91665044D01*
X85861009Y-92329000D01*
X79217440Y-92329000D01*
X79217440Y-91229000D01*
X79173162Y-90993683D01*
X79034090Y-90777559D01*
X78821890Y-90632569D01*
X78570000Y-90581560D01*
X76370000Y-90581560D01*
X76134683Y-90625838D01*
X75918559Y-90764910D01*
X75773569Y-90977110D01*
X75722560Y-91229000D01*
X69747021Y-91229000D01*
X69645572Y-90718986D01*
X69291259Y-90188719D01*
X69142200Y-90089121D01*
X69458568Y-89796226D01*
X69725127Y-89216855D01*
X69606307Y-88963500D01*
X68262500Y-88963500D01*
X68262500Y-88983500D01*
X68008500Y-88983500D01*
X68008500Y-88963500D01*
X66664693Y-88963500D01*
X66545873Y-89216855D01*
X66812432Y-89796226D01*
X67128800Y-90089121D01*
X66979741Y-90188719D01*
X66625428Y-90718986D01*
X66501010Y-91344478D01*
X65151000Y-91344478D01*
X65151000Y-82757010D01*
X66488570Y-82757010D01*
X66488570Y-84755990D01*
X66532848Y-84991307D01*
X66671920Y-85207431D01*
X66837973Y-85320890D01*
X66625428Y-85638986D01*
X66501010Y-86264478D01*
X66501010Y-86328522D01*
X66625428Y-86954014D01*
X66979741Y-87484281D01*
X67128800Y-87583879D01*
X66812432Y-87876774D01*
X66545873Y-88456145D01*
X66664693Y-88709500D01*
X68008500Y-88709500D01*
X68008500Y-88689500D01*
X68262500Y-88689500D01*
X68262500Y-88709500D01*
X69606307Y-88709500D01*
X69725127Y-88456145D01*
X69458568Y-87876774D01*
X69142200Y-87583879D01*
X69291259Y-87484281D01*
X69645572Y-86954014D01*
X69654128Y-86911000D01*
X75722560Y-86911000D01*
X75722560Y-89111000D01*
X75766838Y-89346317D01*
X75905910Y-89562441D01*
X76118110Y-89707431D01*
X76370000Y-89758440D01*
X78570000Y-89758440D01*
X78805317Y-89714162D01*
X79021441Y-89575090D01*
X79166431Y-89362890D01*
X79217440Y-89111000D01*
X79217440Y-88011000D01*
X85861009Y-88011000D01*
X85993078Y-88674956D01*
X86369179Y-89237830D01*
X86932053Y-89613931D01*
X87596009Y-89746000D01*
X87663991Y-89746000D01*
X88327947Y-89613931D01*
X88890821Y-89237830D01*
X89266922Y-88674956D01*
X89398991Y-88011000D01*
X89266922Y-87347044D01*
X88890821Y-86784170D01*
X88327947Y-86408069D01*
X87663991Y-86276000D01*
X87596009Y-86276000D01*
X86932053Y-86408069D01*
X86369179Y-86784170D01*
X85993078Y-87347044D01*
X85861009Y-88011000D01*
X79217440Y-88011000D01*
X79217440Y-86911000D01*
X79173162Y-86675683D01*
X79034090Y-86459559D01*
X78821890Y-86314569D01*
X78570000Y-86263560D01*
X76370000Y-86263560D01*
X76134683Y-86307838D01*
X75918559Y-86446910D01*
X75773569Y-86659110D01*
X75722560Y-86911000D01*
X69654128Y-86911000D01*
X69769990Y-86328522D01*
X69769990Y-86264478D01*
X69645572Y-85638986D01*
X69618187Y-85598000D01*
X101152887Y-85598000D01*
X101262120Y-86147151D01*
X101573189Y-86612698D01*
X101955275Y-86868000D01*
X101573189Y-87123302D01*
X101262120Y-87588849D01*
X101152887Y-88138000D01*
X101262120Y-88687151D01*
X101573189Y-89152698D01*
X101955275Y-89408000D01*
X101573189Y-89663302D01*
X101262120Y-90128849D01*
X101152887Y-90678000D01*
X101262120Y-91227151D01*
X101573189Y-91692698D01*
X102038736Y-92003767D01*
X102587887Y-92113000D01*
X102644113Y-92113000D01*
X103193264Y-92003767D01*
X103658811Y-91692698D01*
X103969880Y-91227151D01*
X104079113Y-90678000D01*
X103969880Y-90128849D01*
X103658811Y-89663302D01*
X103276725Y-89408000D01*
X103658811Y-89152698D01*
X103969880Y-88687151D01*
X104079113Y-88138000D01*
X103969880Y-87588849D01*
X103658811Y-87123302D01*
X103276725Y-86868000D01*
X103658811Y-86612698D01*
X103969880Y-86147151D01*
X104079113Y-85598000D01*
X108772887Y-85598000D01*
X108882120Y-86147151D01*
X109193189Y-86612698D01*
X109575275Y-86868000D01*
X109193189Y-87123302D01*
X108882120Y-87588849D01*
X108772887Y-88138000D01*
X108882120Y-88687151D01*
X109193189Y-89152698D01*
X109575275Y-89408000D01*
X109193189Y-89663302D01*
X108882120Y-90128849D01*
X108772887Y-90678000D01*
X108882120Y-91227151D01*
X109193189Y-91692698D01*
X109658736Y-92003767D01*
X110207887Y-92113000D01*
X110264113Y-92113000D01*
X110813264Y-92003767D01*
X111278811Y-91692698D01*
X111589880Y-91227151D01*
X111699113Y-90678000D01*
X111648590Y-90424000D01*
X117662887Y-90424000D01*
X117772120Y-90973151D01*
X118083189Y-91438698D01*
X118465275Y-91694000D01*
X118083189Y-91949302D01*
X117772120Y-92414849D01*
X117662887Y-92964000D01*
X117772120Y-93513151D01*
X118083189Y-93978698D01*
X118548736Y-94289767D01*
X119097887Y-94399000D01*
X119154113Y-94399000D01*
X119703264Y-94289767D01*
X120168811Y-93978698D01*
X120479880Y-93513151D01*
X120589113Y-92964000D01*
X120479880Y-92414849D01*
X120168811Y-91949302D01*
X119786725Y-91694000D01*
X120168811Y-91438698D01*
X120479880Y-90973151D01*
X120589113Y-90424000D01*
X120479880Y-89874849D01*
X120168811Y-89409302D01*
X119764297Y-89139014D01*
X119981134Y-89036389D01*
X120357041Y-88621423D01*
X120517904Y-88233039D01*
X120395915Y-88011000D01*
X119253000Y-88011000D01*
X119253000Y-88031000D01*
X118999000Y-88031000D01*
X118999000Y-88011000D01*
X117856085Y-88011000D01*
X117734096Y-88233039D01*
X117894959Y-88621423D01*
X118270866Y-89036389D01*
X118487703Y-89139014D01*
X118083189Y-89409302D01*
X117772120Y-89874849D01*
X117662887Y-90424000D01*
X111648590Y-90424000D01*
X111589880Y-90128849D01*
X111278811Y-89663302D01*
X110896725Y-89408000D01*
X111278811Y-89152698D01*
X111589880Y-88687151D01*
X111699113Y-88138000D01*
X111589880Y-87588849D01*
X111553874Y-87534961D01*
X117734096Y-87534961D01*
X117856085Y-87757000D01*
X118999000Y-87757000D01*
X118999000Y-86613371D01*
X119253000Y-86613371D01*
X119253000Y-87757000D01*
X120395915Y-87757000D01*
X120517904Y-87534961D01*
X120357041Y-87146577D01*
X119981134Y-86731611D01*
X119475041Y-86492086D01*
X119253000Y-86613371D01*
X118999000Y-86613371D01*
X118776959Y-86492086D01*
X118270866Y-86731611D01*
X117894959Y-87146577D01*
X117734096Y-87534961D01*
X111553874Y-87534961D01*
X111278811Y-87123302D01*
X110896725Y-86868000D01*
X111278811Y-86612698D01*
X111589880Y-86147151D01*
X111699113Y-85598000D01*
X111693521Y-85569887D01*
X113246000Y-85569887D01*
X113246000Y-85626113D01*
X113355233Y-86175264D01*
X113666302Y-86640811D01*
X114131849Y-86951880D01*
X114681000Y-87061113D01*
X115230151Y-86951880D01*
X115695698Y-86640811D01*
X116006767Y-86175264D01*
X116116000Y-85626113D01*
X116116000Y-85569887D01*
X116006767Y-85020736D01*
X115695698Y-84555189D01*
X115230151Y-84244120D01*
X114681000Y-84134887D01*
X114131849Y-84244120D01*
X113666302Y-84555189D01*
X113355233Y-85020736D01*
X113246000Y-85569887D01*
X111693521Y-85569887D01*
X111589880Y-85048849D01*
X111278811Y-84583302D01*
X110874297Y-84313014D01*
X111091134Y-84210389D01*
X111467041Y-83795423D01*
X111627904Y-83407039D01*
X111505915Y-83185000D01*
X110363000Y-83185000D01*
X110363000Y-83205000D01*
X110109000Y-83205000D01*
X110109000Y-83185000D01*
X108966085Y-83185000D01*
X108844096Y-83407039D01*
X109004959Y-83795423D01*
X109380866Y-84210389D01*
X109597703Y-84313014D01*
X109193189Y-84583302D01*
X108882120Y-85048849D01*
X108772887Y-85598000D01*
X104079113Y-85598000D01*
X103969880Y-85048849D01*
X103658811Y-84583302D01*
X103254297Y-84313014D01*
X103471134Y-84210389D01*
X103847041Y-83795423D01*
X104007904Y-83407039D01*
X103885915Y-83185000D01*
X102743000Y-83185000D01*
X102743000Y-83205000D01*
X102489000Y-83205000D01*
X102489000Y-83185000D01*
X101346085Y-83185000D01*
X101224096Y-83407039D01*
X101384959Y-83795423D01*
X101760866Y-84210389D01*
X101977703Y-84313014D01*
X101573189Y-84583302D01*
X101262120Y-85048849D01*
X101152887Y-85598000D01*
X69618187Y-85598000D01*
X69432047Y-85319423D01*
X69586431Y-85220080D01*
X69731421Y-85007880D01*
X69782430Y-84755990D01*
X69782430Y-82757010D01*
X69751570Y-82593000D01*
X75722560Y-82593000D01*
X75722560Y-84793000D01*
X75766838Y-85028317D01*
X75905910Y-85244441D01*
X76118110Y-85389431D01*
X76370000Y-85440440D01*
X78570000Y-85440440D01*
X78805317Y-85396162D01*
X79021441Y-85257090D01*
X79166431Y-85044890D01*
X79217440Y-84793000D01*
X79217440Y-84089122D01*
X85940825Y-84089122D01*
X86155466Y-84607332D01*
X86617608Y-85102012D01*
X87233877Y-85382183D01*
X87503000Y-85264604D01*
X87503000Y-83820000D01*
X87757000Y-83820000D01*
X87757000Y-85264604D01*
X88026123Y-85382183D01*
X88642392Y-85102012D01*
X89104534Y-84607332D01*
X89319175Y-84089122D01*
X89201125Y-83820000D01*
X87757000Y-83820000D01*
X87503000Y-83820000D01*
X86058875Y-83820000D01*
X85940825Y-84089122D01*
X79217440Y-84089122D01*
X79217440Y-83296878D01*
X85940825Y-83296878D01*
X86058875Y-83566000D01*
X87503000Y-83566000D01*
X87503000Y-82121396D01*
X87757000Y-82121396D01*
X87757000Y-83566000D01*
X89201125Y-83566000D01*
X89270852Y-83407041D01*
X93604086Y-83407041D01*
X93843611Y-83913134D01*
X94258577Y-84289041D01*
X94646961Y-84449904D01*
X94869000Y-84327915D01*
X94869000Y-83185000D01*
X95123000Y-83185000D01*
X95123000Y-84327915D01*
X95345039Y-84449904D01*
X95733423Y-84289041D01*
X96148389Y-83913134D01*
X96387914Y-83407041D01*
X96266629Y-83185000D01*
X95123000Y-83185000D01*
X94869000Y-83185000D01*
X93725371Y-83185000D01*
X93604086Y-83407041D01*
X89270852Y-83407041D01*
X89319175Y-83296878D01*
X89104534Y-82778668D01*
X88642392Y-82283988D01*
X88026123Y-82003817D01*
X87757000Y-82121396D01*
X87503000Y-82121396D01*
X87233877Y-82003817D01*
X86617608Y-82283988D01*
X86155466Y-82778668D01*
X85940825Y-83296878D01*
X79217440Y-83296878D01*
X79217440Y-82593000D01*
X79173162Y-82357683D01*
X79034090Y-82141559D01*
X78821890Y-81996569D01*
X78570000Y-81945560D01*
X76370000Y-81945560D01*
X76134683Y-81989838D01*
X75918559Y-82128910D01*
X75773569Y-82341110D01*
X75722560Y-82593000D01*
X69751570Y-82593000D01*
X69738152Y-82521693D01*
X69599080Y-82305569D01*
X69386880Y-82160579D01*
X69134990Y-82109570D01*
X67136010Y-82109570D01*
X66900693Y-82153848D01*
X66684569Y-82292920D01*
X66539579Y-82505120D01*
X66488570Y-82757010D01*
X65151000Y-82757010D01*
X65151000Y-78275000D01*
X75722560Y-78275000D01*
X75722560Y-80475000D01*
X75766838Y-80710317D01*
X75905910Y-80926441D01*
X76118110Y-81071431D01*
X76370000Y-81122440D01*
X78570000Y-81122440D01*
X78805317Y-81078162D01*
X79021441Y-80939090D01*
X79166431Y-80726890D01*
X79217440Y-80475000D01*
X79217440Y-79771122D01*
X85940825Y-79771122D01*
X86155466Y-80289332D01*
X86617608Y-80784012D01*
X87233877Y-81064183D01*
X87503000Y-80946604D01*
X87503000Y-79502000D01*
X87757000Y-79502000D01*
X87757000Y-80946604D01*
X88026123Y-81064183D01*
X88459759Y-80867041D01*
X93604086Y-80867041D01*
X93843611Y-81373134D01*
X94258577Y-81749041D01*
X94352639Y-81788000D01*
X94258577Y-81826959D01*
X93843611Y-82202866D01*
X93604086Y-82708959D01*
X93725371Y-82931000D01*
X94869000Y-82931000D01*
X94869000Y-81788085D01*
X94868845Y-81788000D01*
X94869000Y-81787915D01*
X94869000Y-80645000D01*
X95123000Y-80645000D01*
X95123000Y-81787915D01*
X95123155Y-81788000D01*
X95123000Y-81788085D01*
X95123000Y-82931000D01*
X96266629Y-82931000D01*
X96387914Y-82708959D01*
X96148389Y-82202866D01*
X95733423Y-81826959D01*
X95639361Y-81788000D01*
X95733423Y-81749041D01*
X96148389Y-81373134D01*
X96387914Y-80867041D01*
X96387913Y-80867039D01*
X101224096Y-80867039D01*
X101384959Y-81255423D01*
X101760866Y-81670389D01*
X102009367Y-81788000D01*
X101760866Y-81905611D01*
X101384959Y-82320577D01*
X101224096Y-82708961D01*
X101346085Y-82931000D01*
X102489000Y-82931000D01*
X102489000Y-80645000D01*
X102743000Y-80645000D01*
X102743000Y-82931000D01*
X103885915Y-82931000D01*
X104007904Y-82708961D01*
X103847041Y-82320577D01*
X103471134Y-81905611D01*
X103222633Y-81788000D01*
X103471134Y-81670389D01*
X103847041Y-81255423D01*
X104007904Y-80867039D01*
X108844096Y-80867039D01*
X109004959Y-81255423D01*
X109380866Y-81670389D01*
X109629367Y-81788000D01*
X109380866Y-81905611D01*
X109004959Y-82320577D01*
X108844096Y-82708961D01*
X108966085Y-82931000D01*
X110109000Y-82931000D01*
X110109000Y-80645000D01*
X110363000Y-80645000D01*
X110363000Y-82931000D01*
X111505915Y-82931000D01*
X111627904Y-82708961D01*
X111467041Y-82320577D01*
X111091134Y-81905611D01*
X110842633Y-81788000D01*
X111091134Y-81670389D01*
X111467041Y-81255423D01*
X111627904Y-80867039D01*
X111505915Y-80645000D01*
X110363000Y-80645000D01*
X110109000Y-80645000D01*
X108966085Y-80645000D01*
X108844096Y-80867039D01*
X104007904Y-80867039D01*
X103885915Y-80645000D01*
X102743000Y-80645000D01*
X102489000Y-80645000D01*
X101346085Y-80645000D01*
X101224096Y-80867039D01*
X96387913Y-80867039D01*
X96266629Y-80645000D01*
X95123000Y-80645000D01*
X94869000Y-80645000D01*
X93725371Y-80645000D01*
X93604086Y-80867041D01*
X88459759Y-80867041D01*
X88642392Y-80784012D01*
X89104534Y-80289332D01*
X89154392Y-80168959D01*
X93604086Y-80168959D01*
X93725371Y-80391000D01*
X94869000Y-80391000D01*
X94869000Y-79248085D01*
X95123000Y-79248085D01*
X95123000Y-80391000D01*
X96266629Y-80391000D01*
X96387914Y-80168959D01*
X96148389Y-79662866D01*
X95733423Y-79286959D01*
X95345039Y-79126096D01*
X95123000Y-79248085D01*
X94869000Y-79248085D01*
X94646961Y-79126096D01*
X94258577Y-79286959D01*
X93843611Y-79662866D01*
X93604086Y-80168959D01*
X89154392Y-80168959D01*
X89319175Y-79771122D01*
X89201125Y-79502000D01*
X87757000Y-79502000D01*
X87503000Y-79502000D01*
X86058875Y-79502000D01*
X85940825Y-79771122D01*
X79217440Y-79771122D01*
X79217440Y-78978878D01*
X85940825Y-78978878D01*
X86058875Y-79248000D01*
X87503000Y-79248000D01*
X87503000Y-77803396D01*
X87757000Y-77803396D01*
X87757000Y-79248000D01*
X89201125Y-79248000D01*
X89319175Y-78978878D01*
X89104534Y-78460668D01*
X88642392Y-77965988D01*
X88026123Y-77685817D01*
X87757000Y-77803396D01*
X87503000Y-77803396D01*
X87233877Y-77685817D01*
X86617608Y-77965988D01*
X86155466Y-78460668D01*
X85940825Y-78978878D01*
X79217440Y-78978878D01*
X79217440Y-78275000D01*
X79173162Y-78039683D01*
X79034090Y-77823559D01*
X78821890Y-77678569D01*
X78570000Y-77627560D01*
X76370000Y-77627560D01*
X76134683Y-77671838D01*
X75918559Y-77810910D01*
X75773569Y-78023110D01*
X75722560Y-78275000D01*
X65151000Y-78275000D01*
X65151000Y-75438000D01*
X101152887Y-75438000D01*
X101262120Y-75987151D01*
X101573189Y-76452698D01*
X101955275Y-76708000D01*
X101573189Y-76963302D01*
X101262120Y-77428849D01*
X101152887Y-77978000D01*
X101262120Y-78527151D01*
X101573189Y-78992698D01*
X101977703Y-79262986D01*
X101760866Y-79365611D01*
X101384959Y-79780577D01*
X101224096Y-80168961D01*
X101346085Y-80391000D01*
X102489000Y-80391000D01*
X102489000Y-80371000D01*
X102743000Y-80371000D01*
X102743000Y-80391000D01*
X103885915Y-80391000D01*
X104007904Y-80168961D01*
X103847041Y-79780577D01*
X103471134Y-79365611D01*
X103254297Y-79262986D01*
X103658811Y-78992698D01*
X103969880Y-78527151D01*
X104079113Y-77978000D01*
X103969880Y-77428849D01*
X103658811Y-76963302D01*
X103276725Y-76708000D01*
X103658811Y-76452698D01*
X103969880Y-75987151D01*
X104079113Y-75438000D01*
X103969880Y-74888849D01*
X103658811Y-74423302D01*
X103514535Y-74326899D01*
X103651317Y-74301162D01*
X103867441Y-74162090D01*
X104012431Y-73949890D01*
X104063440Y-73698000D01*
X104063440Y-72898000D01*
X108772887Y-72898000D01*
X108882120Y-73447151D01*
X109193189Y-73912698D01*
X109575275Y-74168000D01*
X109193189Y-74423302D01*
X108882120Y-74888849D01*
X108772887Y-75438000D01*
X108882120Y-75987151D01*
X109193189Y-76452698D01*
X109575275Y-76708000D01*
X109193189Y-76963302D01*
X108882120Y-77428849D01*
X108772887Y-77978000D01*
X108882120Y-78527151D01*
X109193189Y-78992698D01*
X109597703Y-79262986D01*
X109380866Y-79365611D01*
X109004959Y-79780577D01*
X108844096Y-80168961D01*
X108966085Y-80391000D01*
X110109000Y-80391000D01*
X110109000Y-80371000D01*
X110363000Y-80371000D01*
X110363000Y-80391000D01*
X111505915Y-80391000D01*
X111627904Y-80168961D01*
X111467041Y-79780577D01*
X111091134Y-79365611D01*
X110874297Y-79262986D01*
X111278811Y-78992698D01*
X111589880Y-78527151D01*
X111642584Y-78262187D01*
X113245752Y-78262187D01*
X113463757Y-78789800D01*
X113867077Y-79193824D01*
X114394309Y-79412750D01*
X114965187Y-79413248D01*
X115492800Y-79195243D01*
X115896824Y-78791923D01*
X116115750Y-78264691D01*
X116116248Y-77693813D01*
X115898243Y-77166200D01*
X115494923Y-76762176D01*
X114967691Y-76543250D01*
X114396813Y-76542752D01*
X113869200Y-76760757D01*
X113465176Y-77164077D01*
X113246250Y-77691309D01*
X113245752Y-78262187D01*
X111642584Y-78262187D01*
X111699113Y-77978000D01*
X111589880Y-77428849D01*
X111278811Y-76963302D01*
X110896725Y-76708000D01*
X111278811Y-76452698D01*
X111589880Y-75987151D01*
X111699113Y-75438000D01*
X111589880Y-74888849D01*
X111447659Y-74676000D01*
X117662887Y-74676000D01*
X117772120Y-75225151D01*
X118083189Y-75690698D01*
X118465275Y-75946000D01*
X118083189Y-76201302D01*
X117772120Y-76666849D01*
X117662887Y-77216000D01*
X117772120Y-77765151D01*
X118083189Y-78230698D01*
X118548736Y-78541767D01*
X119097887Y-78651000D01*
X119154113Y-78651000D01*
X119703264Y-78541767D01*
X120168811Y-78230698D01*
X120479880Y-77765151D01*
X120589113Y-77216000D01*
X120479880Y-76666849D01*
X120168811Y-76201302D01*
X119786725Y-75946000D01*
X120168811Y-75690698D01*
X120479880Y-75225151D01*
X120589113Y-74676000D01*
X120479880Y-74126849D01*
X120168811Y-73661302D01*
X119764297Y-73391014D01*
X119981134Y-73288389D01*
X120357041Y-72873423D01*
X120517904Y-72485039D01*
X120395915Y-72263000D01*
X119253000Y-72263000D01*
X119253000Y-72283000D01*
X118999000Y-72283000D01*
X118999000Y-72263000D01*
X117856085Y-72263000D01*
X117734096Y-72485039D01*
X117894959Y-72873423D01*
X118270866Y-73288389D01*
X118487703Y-73391014D01*
X118083189Y-73661302D01*
X117772120Y-74126849D01*
X117662887Y-74676000D01*
X111447659Y-74676000D01*
X111278811Y-74423302D01*
X110896725Y-74168000D01*
X111278811Y-73912698D01*
X111589880Y-73447151D01*
X111699113Y-72898000D01*
X111589880Y-72348849D01*
X111278811Y-71883302D01*
X111134627Y-71786961D01*
X117734096Y-71786961D01*
X117856085Y-72009000D01*
X118999000Y-72009000D01*
X118999000Y-70865371D01*
X119253000Y-70865371D01*
X119253000Y-72009000D01*
X120395915Y-72009000D01*
X120517904Y-71786961D01*
X120357041Y-71398577D01*
X119981134Y-70983611D01*
X119475041Y-70744086D01*
X119253000Y-70865371D01*
X118999000Y-70865371D01*
X118776959Y-70744086D01*
X118270866Y-70983611D01*
X117894959Y-71398577D01*
X117734096Y-71786961D01*
X111134627Y-71786961D01*
X110813264Y-71572233D01*
X110264113Y-71463000D01*
X110207887Y-71463000D01*
X109658736Y-71572233D01*
X109193189Y-71883302D01*
X108882120Y-72348849D01*
X108772887Y-72898000D01*
X104063440Y-72898000D01*
X104063440Y-72098000D01*
X104019162Y-71862683D01*
X103880090Y-71646559D01*
X103667890Y-71501569D01*
X103416000Y-71450560D01*
X101816000Y-71450560D01*
X101580683Y-71494838D01*
X101364559Y-71633910D01*
X101219569Y-71846110D01*
X101168560Y-72098000D01*
X101168560Y-73698000D01*
X101212838Y-73933317D01*
X101351910Y-74149441D01*
X101564110Y-74294431D01*
X101719089Y-74325815D01*
X101573189Y-74423302D01*
X101262120Y-74888849D01*
X101152887Y-75438000D01*
X65151000Y-75438000D01*
X65151000Y-69342000D01*
X93982606Y-69342000D01*
X93780176Y-69544077D01*
G36*
X153797000Y-98171000D02*
X122555000Y-98171000D01*
X122555000Y-95026187D01*
X130898752Y-95026187D01*
X131116757Y-95553800D01*
X131520077Y-95957824D01*
X132047309Y-96176750D01*
X132618187Y-96177248D01*
X132687685Y-96148532D01*
X137330073Y-96148532D01*
X137428736Y-96415387D01*
X138038461Y-96641908D01*
X138688460Y-96617856D01*
X139177264Y-96415387D01*
X139275927Y-96148532D01*
X138303000Y-95175605D01*
X137330073Y-96148532D01*
X132687685Y-96148532D01*
X133145800Y-95959243D01*
X133549824Y-95555923D01*
X133768750Y-95028691D01*
X133769009Y-94731461D01*
X136657092Y-94731461D01*
X136681144Y-95381460D01*
X136883613Y-95870264D01*
X137150468Y-95968927D01*
X138123395Y-94996000D01*
X138482605Y-94996000D01*
X139455532Y-95968927D01*
X139722387Y-95870264D01*
X139926893Y-95319795D01*
X141167716Y-95319795D01*
X141416106Y-95920943D01*
X141875637Y-96381278D01*
X142476352Y-96630716D01*
X143126795Y-96631284D01*
X143727943Y-96382894D01*
X144188278Y-95923363D01*
X144437716Y-95322648D01*
X144438284Y-94672205D01*
X144335157Y-94422619D01*
X147624613Y-94422619D01*
X147964155Y-95244372D01*
X148592321Y-95873636D01*
X149413481Y-96214611D01*
X150302619Y-96215387D01*
X151124372Y-95875845D01*
X151753636Y-95247679D01*
X152094611Y-94426519D01*
X152095387Y-93537381D01*
X151755845Y-92715628D01*
X151127679Y-92086364D01*
X150306519Y-91745389D01*
X149417381Y-91744613D01*
X148595628Y-92084155D01*
X147966364Y-92712321D01*
X147625389Y-93533481D01*
X147624613Y-94422619D01*
X144335157Y-94422619D01*
X144189894Y-94071057D01*
X143730363Y-93610722D01*
X143129648Y-93361284D01*
X142479205Y-93360716D01*
X141878057Y-93609106D01*
X141417722Y-94068637D01*
X141168284Y-94669352D01*
X141167716Y-95319795D01*
X139926893Y-95319795D01*
X139948908Y-95260539D01*
X139924856Y-94610540D01*
X139722387Y-94121736D01*
X139455532Y-94023073D01*
X138482605Y-94996000D01*
X138123395Y-94996000D01*
X137150468Y-94023073D01*
X136883613Y-94121736D01*
X136657092Y-94731461D01*
X133769009Y-94731461D01*
X133769248Y-94457813D01*
X133551243Y-93930200D01*
X133464663Y-93843468D01*
X137330073Y-93843468D01*
X138303000Y-94816395D01*
X139275927Y-93843468D01*
X139177264Y-93576613D01*
X138567539Y-93350092D01*
X137917540Y-93374144D01*
X137428736Y-93576613D01*
X137330073Y-93843468D01*
X133464663Y-93843468D01*
X133147923Y-93526176D01*
X132620691Y-93307250D01*
X132049813Y-93306752D01*
X131522200Y-93524757D01*
X131118176Y-93928077D01*
X130899250Y-94455309D01*
X130898752Y-95026187D01*
X122555000Y-95026187D01*
X122555000Y-92164000D01*
X125298560Y-92164000D01*
X125298560Y-93764000D01*
X125342838Y-93999317D01*
X125481910Y-94215441D01*
X125694110Y-94360431D01*
X125946000Y-94411440D01*
X127546000Y-94411440D01*
X127781317Y-94367162D01*
X127997441Y-94228090D01*
X128142431Y-94015890D01*
X128193440Y-93764000D01*
X128193440Y-92164000D01*
X128149162Y-91928683D01*
X128010090Y-91712559D01*
X127797890Y-91567569D01*
X127638384Y-91535268D01*
X127977041Y-91161423D01*
X128137904Y-90773039D01*
X128015915Y-90551000D01*
X126873000Y-90551000D01*
X126873000Y-90571000D01*
X126619000Y-90571000D01*
X126619000Y-90551000D01*
X125476085Y-90551000D01*
X125354096Y-90773039D01*
X125514959Y-91161423D01*
X125852590Y-91534136D01*
X125710683Y-91560838D01*
X125494559Y-91699910D01*
X125349569Y-91912110D01*
X125298560Y-92164000D01*
X122555000Y-92164000D01*
X122555000Y-87884000D01*
X125282887Y-87884000D01*
X125392120Y-88433151D01*
X125703189Y-88898698D01*
X126107703Y-89168986D01*
X125890866Y-89271611D01*
X125514959Y-89686577D01*
X125354096Y-90074961D01*
X125476085Y-90297000D01*
X126619000Y-90297000D01*
X126619000Y-90277000D01*
X126873000Y-90277000D01*
X126873000Y-90297000D01*
X128015915Y-90297000D01*
X128137904Y-90074961D01*
X127977041Y-89686577D01*
X127942578Y-89648532D01*
X137330073Y-89648532D01*
X137428736Y-89915387D01*
X138038461Y-90141908D01*
X138688460Y-90117856D01*
X139177264Y-89915387D01*
X139275927Y-89648532D01*
X138303000Y-88675605D01*
X137330073Y-89648532D01*
X127942578Y-89648532D01*
X127601134Y-89271611D01*
X127384297Y-89168986D01*
X127788811Y-88898698D01*
X128099880Y-88433151D01*
X128139998Y-88231461D01*
X136657092Y-88231461D01*
X136681144Y-88881460D01*
X136883613Y-89370264D01*
X137150468Y-89468927D01*
X138123395Y-88496000D01*
X138482605Y-88496000D01*
X139455532Y-89468927D01*
X139722387Y-89370264D01*
X139926893Y-88819795D01*
X141167716Y-88819795D01*
X141416106Y-89420943D01*
X141875637Y-89881278D01*
X142476352Y-90130716D01*
X143126795Y-90131284D01*
X143727943Y-89882894D01*
X144188278Y-89423363D01*
X144437716Y-88822648D01*
X144438284Y-88172205D01*
X144189894Y-87571057D01*
X143730363Y-87110722D01*
X143129648Y-86861284D01*
X142479205Y-86860716D01*
X141878057Y-87109106D01*
X141417722Y-87568637D01*
X141168284Y-88169352D01*
X141167716Y-88819795D01*
X139926893Y-88819795D01*
X139948908Y-88760539D01*
X139924856Y-88110540D01*
X139722387Y-87621736D01*
X139455532Y-87523073D01*
X138482605Y-88496000D01*
X138123395Y-88496000D01*
X137150468Y-87523073D01*
X136883613Y-87621736D01*
X136657092Y-88231461D01*
X128139998Y-88231461D01*
X128209113Y-87884000D01*
X128101595Y-87343468D01*
X137330073Y-87343468D01*
X138303000Y-88316395D01*
X139275927Y-87343468D01*
X139177264Y-87076613D01*
X138567539Y-86850092D01*
X137917540Y-86874144D01*
X137428736Y-87076613D01*
X137330073Y-87343468D01*
X128101595Y-87343468D01*
X128099880Y-87334849D01*
X127788811Y-86869302D01*
X127323264Y-86558233D01*
X126774113Y-86449000D01*
X126717887Y-86449000D01*
X126168736Y-86558233D01*
X125703189Y-86869302D01*
X125392120Y-87334849D01*
X125282887Y-87884000D01*
X122555000Y-87884000D01*
X122555000Y-82199187D01*
X130898752Y-82199187D01*
X131116757Y-82726800D01*
X131520077Y-83130824D01*
X131773176Y-83235920D01*
X131319302Y-83539189D01*
X131008233Y-84004736D01*
X130899000Y-84553887D01*
X130899000Y-84610113D01*
X131008233Y-85159264D01*
X131319302Y-85624811D01*
X131784849Y-85935880D01*
X132334000Y-86045113D01*
X132883151Y-85935880D01*
X133348698Y-85624811D01*
X133659767Y-85159264D01*
X133747434Y-84718532D01*
X137330073Y-84718532D01*
X137428736Y-84985387D01*
X138038461Y-85211908D01*
X138688460Y-85187856D01*
X139177264Y-84985387D01*
X139275927Y-84718532D01*
X138303000Y-83745605D01*
X137330073Y-84718532D01*
X133747434Y-84718532D01*
X133769000Y-84610113D01*
X133769000Y-84553887D01*
X133659767Y-84004736D01*
X133348698Y-83539189D01*
X132992914Y-83301461D01*
X136657092Y-83301461D01*
X136681144Y-83951460D01*
X136883613Y-84440264D01*
X137150468Y-84538927D01*
X138123395Y-83566000D01*
X138482605Y-83566000D01*
X139455532Y-84538927D01*
X139722387Y-84440264D01*
X139926893Y-83889795D01*
X141167716Y-83889795D01*
X141416106Y-84490943D01*
X141875637Y-84951278D01*
X142476352Y-85200716D01*
X143126795Y-85201284D01*
X143727943Y-84952894D01*
X144188278Y-84493363D01*
X144437716Y-83892648D01*
X144438284Y-83242205D01*
X144189894Y-82641057D01*
X143730363Y-82180722D01*
X143129648Y-81931284D01*
X142479205Y-81930716D01*
X141878057Y-82179106D01*
X141417722Y-82638637D01*
X141168284Y-83239352D01*
X141167716Y-83889795D01*
X139926893Y-83889795D01*
X139948908Y-83830539D01*
X139924856Y-83180540D01*
X139722387Y-82691736D01*
X139455532Y-82593073D01*
X138482605Y-83566000D01*
X138123395Y-83566000D01*
X137150468Y-82593073D01*
X136883613Y-82691736D01*
X136657092Y-83301461D01*
X132992914Y-83301461D01*
X132894847Y-83235935D01*
X133145800Y-83132243D01*
X133549824Y-82728923D01*
X133680812Y-82413468D01*
X137330073Y-82413468D01*
X138303000Y-83386395D01*
X139275927Y-82413468D01*
X139177264Y-82146613D01*
X138567539Y-81920092D01*
X137917540Y-81944144D01*
X137428736Y-82146613D01*
X137330073Y-82413468D01*
X133680812Y-82413468D01*
X133768750Y-82201691D01*
X133769248Y-81630813D01*
X133551243Y-81103200D01*
X133147923Y-80699176D01*
X132620691Y-80480250D01*
X132049813Y-80479752D01*
X131522200Y-80697757D01*
X131118176Y-81101077D01*
X130899250Y-81628309D01*
X130898752Y-82199187D01*
X122555000Y-82199187D01*
X122555000Y-76416000D01*
X125298560Y-76416000D01*
X125298560Y-78016000D01*
X125342838Y-78251317D01*
X125481910Y-78467441D01*
X125694110Y-78612431D01*
X125946000Y-78663440D01*
X127546000Y-78663440D01*
X127781317Y-78619162D01*
X127997441Y-78480090D01*
X128142431Y-78267890D01*
X128152426Y-78218532D01*
X137330073Y-78218532D01*
X137428736Y-78485387D01*
X138038461Y-78711908D01*
X138688460Y-78687856D01*
X139177264Y-78485387D01*
X139275927Y-78218532D01*
X138303000Y-77245605D01*
X137330073Y-78218532D01*
X128152426Y-78218532D01*
X128193440Y-78016000D01*
X128193440Y-76801461D01*
X136657092Y-76801461D01*
X136681144Y-77451460D01*
X136883613Y-77940264D01*
X137150468Y-78038927D01*
X138123395Y-77066000D01*
X138482605Y-77066000D01*
X139455532Y-78038927D01*
X139722387Y-77940264D01*
X139926893Y-77389795D01*
X141167716Y-77389795D01*
X141416106Y-77990943D01*
X141875637Y-78451278D01*
X142476352Y-78700716D01*
X143126795Y-78701284D01*
X143727943Y-78452894D01*
X144188278Y-77993363D01*
X144437716Y-77392648D01*
X144438284Y-76742205D01*
X144189894Y-76141057D01*
X143730363Y-75680722D01*
X143129648Y-75431284D01*
X142479205Y-75430716D01*
X141878057Y-75679106D01*
X141417722Y-76138637D01*
X141168284Y-76739352D01*
X141167716Y-77389795D01*
X139926893Y-77389795D01*
X139948908Y-77330539D01*
X139924856Y-76680540D01*
X139722387Y-76191736D01*
X139455532Y-76093073D01*
X138482605Y-77066000D01*
X138123395Y-77066000D01*
X137150468Y-76093073D01*
X136883613Y-76191736D01*
X136657092Y-76801461D01*
X128193440Y-76801461D01*
X128193440Y-76416000D01*
X128149162Y-76180683D01*
X128010090Y-75964559D01*
X127935316Y-75913468D01*
X137330073Y-75913468D01*
X138303000Y-76886395D01*
X139275927Y-75913468D01*
X139177264Y-75646613D01*
X138567539Y-75420092D01*
X137917540Y-75444144D01*
X137428736Y-75646613D01*
X137330073Y-75913468D01*
X127935316Y-75913468D01*
X127797890Y-75819569D01*
X127638384Y-75787268D01*
X127977041Y-75413423D01*
X128137904Y-75025039D01*
X128015915Y-74803000D01*
X126873000Y-74803000D01*
X126873000Y-74823000D01*
X126619000Y-74823000D01*
X126619000Y-74803000D01*
X125476085Y-74803000D01*
X125354096Y-75025039D01*
X125514959Y-75413423D01*
X125852590Y-75786136D01*
X125710683Y-75812838D01*
X125494559Y-75951910D01*
X125349569Y-76164110D01*
X125298560Y-76416000D01*
X122555000Y-76416000D01*
X122555000Y-72136000D01*
X125282887Y-72136000D01*
X125392120Y-72685151D01*
X125703189Y-73150698D01*
X126107703Y-73420986D01*
X125890866Y-73523611D01*
X125514959Y-73938577D01*
X125354096Y-74326961D01*
X125476085Y-74549000D01*
X126619000Y-74549000D01*
X126619000Y-74529000D01*
X126873000Y-74529000D01*
X126873000Y-74549000D01*
X128015915Y-74549000D01*
X128137904Y-74326961D01*
X127977041Y-73938577D01*
X127601134Y-73523611D01*
X127384297Y-73420986D01*
X127788811Y-73150698D01*
X128099880Y-72685151D01*
X128209113Y-72136000D01*
X128127736Y-71726887D01*
X130899000Y-71726887D01*
X130899000Y-71783113D01*
X131008233Y-72332264D01*
X131319302Y-72797811D01*
X131784849Y-73108880D01*
X132334000Y-73218113D01*
X132883151Y-73108880D01*
X133348698Y-72797811D01*
X133659767Y-72332264D01*
X133692801Y-72166187D01*
X138010752Y-72166187D01*
X138228757Y-72693800D01*
X138632077Y-73097824D01*
X139159309Y-73316750D01*
X139730187Y-73317248D01*
X140257800Y-73099243D01*
X140661824Y-72695923D01*
X140880750Y-72168691D01*
X140881000Y-71882000D01*
X148142887Y-71882000D01*
X148252120Y-72431151D01*
X148563189Y-72896698D01*
X149028736Y-73207767D01*
X149577887Y-73317000D01*
X149634113Y-73317000D01*
X150183264Y-73207767D01*
X150648811Y-72896698D01*
X150959880Y-72431151D01*
X151069113Y-71882000D01*
X150959880Y-71332849D01*
X150648811Y-70867302D01*
X150183264Y-70556233D01*
X149634113Y-70447000D01*
X149577887Y-70447000D01*
X149028736Y-70556233D01*
X148563189Y-70867302D01*
X148252120Y-71332849D01*
X148142887Y-71882000D01*
X140881000Y-71882000D01*
X140881248Y-71597813D01*
X140663243Y-71070200D01*
X140259923Y-70666176D01*
X139732691Y-70447250D01*
X139161813Y-70446752D01*
X138634200Y-70664757D01*
X138230176Y-71068077D01*
X138011250Y-71595309D01*
X138010752Y-72166187D01*
X133692801Y-72166187D01*
X133769000Y-71783113D01*
X133769000Y-71726887D01*
X133659767Y-71177736D01*
X133348698Y-70712189D01*
X132883151Y-70401120D01*
X132334000Y-70291887D01*
X131784849Y-70401120D01*
X131319302Y-70712189D01*
X131008233Y-71177736D01*
X130899000Y-71726887D01*
X128127736Y-71726887D01*
X128099880Y-71586849D01*
X127788811Y-71121302D01*
X127323264Y-70810233D01*
X126774113Y-70701000D01*
X126717887Y-70701000D01*
X126168736Y-70810233D01*
X125703189Y-71121302D01*
X125392120Y-71586849D01*
X125282887Y-72136000D01*
X122555000Y-72136000D01*
X122555000Y-64870440D01*
X122705402Y-64870440D01*
X126580481Y-68745520D01*
X126765721Y-68869293D01*
X126889494Y-68951995D01*
X127254000Y-69024500D01*
X138369212Y-69024500D01*
X138632077Y-69287824D01*
X139159309Y-69506750D01*
X139730187Y-69507248D01*
X140257800Y-69289243D01*
X140661824Y-68885923D01*
X140880750Y-68358691D01*
X140881000Y-68072000D01*
X148142887Y-68072000D01*
X148252120Y-68621151D01*
X148563189Y-69086698D01*
X149028736Y-69397767D01*
X149577887Y-69507000D01*
X149634113Y-69507000D01*
X150183264Y-69397767D01*
X150648811Y-69086698D01*
X150959880Y-68621151D01*
X151069113Y-68072000D01*
X150959880Y-67522849D01*
X150648811Y-67057302D01*
X150183264Y-66746233D01*
X149634113Y-66637000D01*
X149577887Y-66637000D01*
X149028736Y-66746233D01*
X148563189Y-67057302D01*
X148252120Y-67522849D01*
X148142887Y-68072000D01*
X140881000Y-68072000D01*
X140881248Y-67787813D01*
X140663243Y-67260200D01*
X140259923Y-66856176D01*
X139732691Y-66637250D01*
X139161813Y-66636752D01*
X138634200Y-66854757D01*
X138368995Y-67119500D01*
X127648539Y-67119500D01*
X124187789Y-63658750D01*
X126594500Y-63658750D01*
X126594500Y-64349310D01*
X126691173Y-64582699D01*
X126869802Y-64761327D01*
X127103191Y-64858000D01*
X127793750Y-64858000D01*
X127952500Y-64699250D01*
X127952500Y-63500000D01*
X128206500Y-63500000D01*
X128206500Y-64699250D01*
X128365250Y-64858000D01*
X129055809Y-64858000D01*
X129289198Y-64761327D01*
X129467827Y-64582699D01*
X129564500Y-64349310D01*
X129564500Y-63658750D01*
X129405750Y-63500000D01*
X128206500Y-63500000D01*
X127952500Y-63500000D01*
X126753250Y-63500000D01*
X126594500Y-63658750D01*
X124187789Y-63658750D01*
X124052440Y-63523402D01*
X124052440Y-62523000D01*
X124028674Y-62396690D01*
X126594500Y-62396690D01*
X126594500Y-63087250D01*
X126753250Y-63246000D01*
X127952500Y-63246000D01*
X127952500Y-62046750D01*
X128206500Y-62046750D01*
X128206500Y-63246000D01*
X129405750Y-63246000D01*
X129564500Y-63087250D01*
X129564500Y-62523000D01*
X132106560Y-62523000D01*
X132106560Y-64223000D01*
X132150838Y-64458317D01*
X132289910Y-64674441D01*
X132502110Y-64819431D01*
X132754000Y-64870440D01*
X134454000Y-64870440D01*
X134689317Y-64826162D01*
X134905441Y-64687090D01*
X135050431Y-64474890D01*
X135101440Y-64223000D01*
X135101440Y-62523000D01*
X135057162Y-62287683D01*
X134918090Y-62071559D01*
X134705890Y-61926569D01*
X134454000Y-61875560D01*
X132754000Y-61875560D01*
X132518683Y-61919838D01*
X132302559Y-62058910D01*
X132157569Y-62271110D01*
X132106560Y-62523000D01*
X129564500Y-62523000D01*
X129564500Y-62396690D01*
X129467827Y-62163301D01*
X129289198Y-61984673D01*
X129055809Y-61888000D01*
X128365250Y-61888000D01*
X128206500Y-62046750D01*
X127952500Y-62046750D01*
X127793750Y-61888000D01*
X127103191Y-61888000D01*
X126869802Y-61984673D01*
X126691173Y-62163301D01*
X126594500Y-62396690D01*
X124028674Y-62396690D01*
X124008162Y-62287683D01*
X123869090Y-62071559D01*
X123656890Y-61926569D01*
X123405000Y-61875560D01*
X122555000Y-61875560D01*
X122555000Y-56634554D01*
X122818796Y-56634784D01*
X123419944Y-56386394D01*
X123880279Y-55926863D01*
X123894728Y-55892065D01*
X123908107Y-55924443D01*
X124367638Y-56384778D01*
X124968353Y-56634216D01*
X125618796Y-56634784D01*
X126219944Y-56386394D01*
X126680279Y-55926863D01*
X126689716Y-55904136D01*
X126698107Y-55924443D01*
X127157638Y-56384778D01*
X127758353Y-56634216D01*
X128408796Y-56634784D01*
X129009944Y-56386394D01*
X129470279Y-55926863D01*
X129479716Y-55904136D01*
X129488107Y-55924443D01*
X129947638Y-56384778D01*
X130548353Y-56634216D01*
X131198796Y-56634784D01*
X131799944Y-56386394D01*
X132260279Y-55926863D01*
X132274728Y-55892065D01*
X132288107Y-55924443D01*
X132747638Y-56384778D01*
X133348353Y-56634216D01*
X133998796Y-56634784D01*
X134599944Y-56386394D01*
X135010314Y-55976741D01*
X135417638Y-56384778D01*
X136018353Y-56634216D01*
X136668796Y-56634784D01*
X137269944Y-56386394D01*
X137730279Y-55926863D01*
X137739716Y-55904136D01*
X137748107Y-55924443D01*
X138207638Y-56384778D01*
X138808353Y-56634216D01*
X139458796Y-56634784D01*
X140059944Y-56386394D01*
X140520279Y-55926863D01*
X140529716Y-55904136D01*
X140538107Y-55924443D01*
X140997638Y-56384778D01*
X141598353Y-56634216D01*
X142248796Y-56634784D01*
X142849944Y-56386394D01*
X143310279Y-55926863D01*
X143559717Y-55326148D01*
X143560285Y-54675705D01*
X143311895Y-54074557D01*
X143170880Y-53933295D01*
X148549717Y-53933295D01*
X148798107Y-54534443D01*
X149257638Y-54994778D01*
X149858353Y-55244216D01*
X150508796Y-55244784D01*
X151109944Y-54996394D01*
X151570279Y-54536863D01*
X151819717Y-53936148D01*
X151820285Y-53285705D01*
X151571895Y-52684557D01*
X151112364Y-52224222D01*
X150511649Y-51974784D01*
X149861206Y-51974216D01*
X149260058Y-52222606D01*
X148799723Y-52682137D01*
X148550285Y-53282852D01*
X148549717Y-53933295D01*
X143170880Y-53933295D01*
X143060764Y-53822987D01*
X143198001Y-53685750D01*
X143198001Y-52336500D01*
X143452001Y-52336500D01*
X143452001Y-53685750D01*
X143610751Y-53844500D01*
X144451310Y-53844500D01*
X144684699Y-53747827D01*
X144863328Y-53569199D01*
X144960001Y-53335810D01*
X144960001Y-52495250D01*
X144801251Y-52336500D01*
X143452001Y-52336500D01*
X143198001Y-52336500D01*
X143178001Y-52336500D01*
X143178001Y-52082500D01*
X143198001Y-52082500D01*
X143198001Y-52062500D01*
X143452001Y-52062500D01*
X143452001Y-52082500D01*
X144801251Y-52082500D01*
X144960001Y-51923750D01*
X144960001Y-51083190D01*
X144895305Y-50927000D01*
X153797000Y-50927000D01*
X153797000Y-98171000D01*
X153797000Y-98171000D01*
G37*
X153797000Y-98171000D02*
X122555000Y-98171000D01*
X122555000Y-95026187D01*
X130898752Y-95026187D01*
X131116757Y-95553800D01*
X131520077Y-95957824D01*
X132047309Y-96176750D01*
X132618187Y-96177248D01*
X132687685Y-96148532D01*
X137330073Y-96148532D01*
X137428736Y-96415387D01*
X138038461Y-96641908D01*
X138688460Y-96617856D01*
X139177264Y-96415387D01*
X139275927Y-96148532D01*
X138303000Y-95175605D01*
X137330073Y-96148532D01*
X132687685Y-96148532D01*
X133145800Y-95959243D01*
X133549824Y-95555923D01*
X133768750Y-95028691D01*
X133769009Y-94731461D01*
X136657092Y-94731461D01*
X136681144Y-95381460D01*
X136883613Y-95870264D01*
X137150468Y-95968927D01*
X138123395Y-94996000D01*
X138482605Y-94996000D01*
X139455532Y-95968927D01*
X139722387Y-95870264D01*
X139926893Y-95319795D01*
X141167716Y-95319795D01*
X141416106Y-95920943D01*
X141875637Y-96381278D01*
X142476352Y-96630716D01*
X143126795Y-96631284D01*
X143727943Y-96382894D01*
X144188278Y-95923363D01*
X144437716Y-95322648D01*
X144438284Y-94672205D01*
X144335157Y-94422619D01*
X147624613Y-94422619D01*
X147964155Y-95244372D01*
X148592321Y-95873636D01*
X149413481Y-96214611D01*
X150302619Y-96215387D01*
X151124372Y-95875845D01*
X151753636Y-95247679D01*
X152094611Y-94426519D01*
X152095387Y-93537381D01*
X151755845Y-92715628D01*
X151127679Y-92086364D01*
X150306519Y-91745389D01*
X149417381Y-91744613D01*
X148595628Y-92084155D01*
X147966364Y-92712321D01*
X147625389Y-93533481D01*
X147624613Y-94422619D01*
X144335157Y-94422619D01*
X144189894Y-94071057D01*
X143730363Y-93610722D01*
X143129648Y-93361284D01*
X142479205Y-93360716D01*
X141878057Y-93609106D01*
X141417722Y-94068637D01*
X141168284Y-94669352D01*
X141167716Y-95319795D01*
X139926893Y-95319795D01*
X139948908Y-95260539D01*
X139924856Y-94610540D01*
X139722387Y-94121736D01*
X139455532Y-94023073D01*
X138482605Y-94996000D01*
X138123395Y-94996000D01*
X137150468Y-94023073D01*
X136883613Y-94121736D01*
X136657092Y-94731461D01*
X133769009Y-94731461D01*
X133769248Y-94457813D01*
X133551243Y-93930200D01*
X133464663Y-93843468D01*
X137330073Y-93843468D01*
X138303000Y-94816395D01*
X139275927Y-93843468D01*
X139177264Y-93576613D01*
X138567539Y-93350092D01*
X137917540Y-93374144D01*
X137428736Y-93576613D01*
X137330073Y-93843468D01*
X133464663Y-93843468D01*
X133147923Y-93526176D01*
X132620691Y-93307250D01*
X132049813Y-93306752D01*
X131522200Y-93524757D01*
X131118176Y-93928077D01*
X130899250Y-94455309D01*
X130898752Y-95026187D01*
X122555000Y-95026187D01*
X122555000Y-92164000D01*
X125298560Y-92164000D01*
X125298560Y-93764000D01*
X125342838Y-93999317D01*
X125481910Y-94215441D01*
X125694110Y-94360431D01*
X125946000Y-94411440D01*
X127546000Y-94411440D01*
X127781317Y-94367162D01*
X127997441Y-94228090D01*
X128142431Y-94015890D01*
X128193440Y-93764000D01*
X128193440Y-92164000D01*
X128149162Y-91928683D01*
X128010090Y-91712559D01*
X127797890Y-91567569D01*
X127638384Y-91535268D01*
X127977041Y-91161423D01*
X128137904Y-90773039D01*
X128015915Y-90551000D01*
X126873000Y-90551000D01*
X126873000Y-90571000D01*
X126619000Y-90571000D01*
X126619000Y-90551000D01*
X125476085Y-90551000D01*
X125354096Y-90773039D01*
X125514959Y-91161423D01*
X125852590Y-91534136D01*
X125710683Y-91560838D01*
X125494559Y-91699910D01*
X125349569Y-91912110D01*
X125298560Y-92164000D01*
X122555000Y-92164000D01*
X122555000Y-87884000D01*
X125282887Y-87884000D01*
X125392120Y-88433151D01*
X125703189Y-88898698D01*
X126107703Y-89168986D01*
X125890866Y-89271611D01*
X125514959Y-89686577D01*
X125354096Y-90074961D01*
X125476085Y-90297000D01*
X126619000Y-90297000D01*
X126619000Y-90277000D01*
X126873000Y-90277000D01*
X126873000Y-90297000D01*
X128015915Y-90297000D01*
X128137904Y-90074961D01*
X127977041Y-89686577D01*
X127942578Y-89648532D01*
X137330073Y-89648532D01*
X137428736Y-89915387D01*
X138038461Y-90141908D01*
X138688460Y-90117856D01*
X139177264Y-89915387D01*
X139275927Y-89648532D01*
X138303000Y-88675605D01*
X137330073Y-89648532D01*
X127942578Y-89648532D01*
X127601134Y-89271611D01*
X127384297Y-89168986D01*
X127788811Y-88898698D01*
X128099880Y-88433151D01*
X128139998Y-88231461D01*
X136657092Y-88231461D01*
X136681144Y-88881460D01*
X136883613Y-89370264D01*
X137150468Y-89468927D01*
X138123395Y-88496000D01*
X138482605Y-88496000D01*
X139455532Y-89468927D01*
X139722387Y-89370264D01*
X139926893Y-88819795D01*
X141167716Y-88819795D01*
X141416106Y-89420943D01*
X141875637Y-89881278D01*
X142476352Y-90130716D01*
X143126795Y-90131284D01*
X143727943Y-89882894D01*
X144188278Y-89423363D01*
X144437716Y-88822648D01*
X144438284Y-88172205D01*
X144189894Y-87571057D01*
X143730363Y-87110722D01*
X143129648Y-86861284D01*
X142479205Y-86860716D01*
X141878057Y-87109106D01*
X141417722Y-87568637D01*
X141168284Y-88169352D01*
X141167716Y-88819795D01*
X139926893Y-88819795D01*
X139948908Y-88760539D01*
X139924856Y-88110540D01*
X139722387Y-87621736D01*
X139455532Y-87523073D01*
X138482605Y-88496000D01*
X138123395Y-88496000D01*
X137150468Y-87523073D01*
X136883613Y-87621736D01*
X136657092Y-88231461D01*
X128139998Y-88231461D01*
X128209113Y-87884000D01*
X128101595Y-87343468D01*
X137330073Y-87343468D01*
X138303000Y-88316395D01*
X139275927Y-87343468D01*
X139177264Y-87076613D01*
X138567539Y-86850092D01*
X137917540Y-86874144D01*
X137428736Y-87076613D01*
X137330073Y-87343468D01*
X128101595Y-87343468D01*
X128099880Y-87334849D01*
X127788811Y-86869302D01*
X127323264Y-86558233D01*
X126774113Y-86449000D01*
X126717887Y-86449000D01*
X126168736Y-86558233D01*
X125703189Y-86869302D01*
X125392120Y-87334849D01*
X125282887Y-87884000D01*
X122555000Y-87884000D01*
X122555000Y-82199187D01*
X130898752Y-82199187D01*
X131116757Y-82726800D01*
X131520077Y-83130824D01*
X131773176Y-83235920D01*
X131319302Y-83539189D01*
X131008233Y-84004736D01*
X130899000Y-84553887D01*
X130899000Y-84610113D01*
X131008233Y-85159264D01*
X131319302Y-85624811D01*
X131784849Y-85935880D01*
X132334000Y-86045113D01*
X132883151Y-85935880D01*
X133348698Y-85624811D01*
X133659767Y-85159264D01*
X133747434Y-84718532D01*
X137330073Y-84718532D01*
X137428736Y-84985387D01*
X138038461Y-85211908D01*
X138688460Y-85187856D01*
X139177264Y-84985387D01*
X139275927Y-84718532D01*
X138303000Y-83745605D01*
X137330073Y-84718532D01*
X133747434Y-84718532D01*
X133769000Y-84610113D01*
X133769000Y-84553887D01*
X133659767Y-84004736D01*
X133348698Y-83539189D01*
X132992914Y-83301461D01*
X136657092Y-83301461D01*
X136681144Y-83951460D01*
X136883613Y-84440264D01*
X137150468Y-84538927D01*
X138123395Y-83566000D01*
X138482605Y-83566000D01*
X139455532Y-84538927D01*
X139722387Y-84440264D01*
X139926893Y-83889795D01*
X141167716Y-83889795D01*
X141416106Y-84490943D01*
X141875637Y-84951278D01*
X142476352Y-85200716D01*
X143126795Y-85201284D01*
X143727943Y-84952894D01*
X144188278Y-84493363D01*
X144437716Y-83892648D01*
X144438284Y-83242205D01*
X144189894Y-82641057D01*
X143730363Y-82180722D01*
X143129648Y-81931284D01*
X142479205Y-81930716D01*
X141878057Y-82179106D01*
X141417722Y-82638637D01*
X141168284Y-83239352D01*
X141167716Y-83889795D01*
X139926893Y-83889795D01*
X139948908Y-83830539D01*
X139924856Y-83180540D01*
X139722387Y-82691736D01*
X139455532Y-82593073D01*
X138482605Y-83566000D01*
X138123395Y-83566000D01*
X137150468Y-82593073D01*
X136883613Y-82691736D01*
X136657092Y-83301461D01*
X132992914Y-83301461D01*
X132894847Y-83235935D01*
X133145800Y-83132243D01*
X133549824Y-82728923D01*
X133680812Y-82413468D01*
X137330073Y-82413468D01*
X138303000Y-83386395D01*
X139275927Y-82413468D01*
X139177264Y-82146613D01*
X138567539Y-81920092D01*
X137917540Y-81944144D01*
X137428736Y-82146613D01*
X137330073Y-82413468D01*
X133680812Y-82413468D01*
X133768750Y-82201691D01*
X133769248Y-81630813D01*
X133551243Y-81103200D01*
X133147923Y-80699176D01*
X132620691Y-80480250D01*
X132049813Y-80479752D01*
X131522200Y-80697757D01*
X131118176Y-81101077D01*
X130899250Y-81628309D01*
X130898752Y-82199187D01*
X122555000Y-82199187D01*
X122555000Y-76416000D01*
X125298560Y-76416000D01*
X125298560Y-78016000D01*
X125342838Y-78251317D01*
X125481910Y-78467441D01*
X125694110Y-78612431D01*
X125946000Y-78663440D01*
X127546000Y-78663440D01*
X127781317Y-78619162D01*
X127997441Y-78480090D01*
X128142431Y-78267890D01*
X128152426Y-78218532D01*
X137330073Y-78218532D01*
X137428736Y-78485387D01*
X138038461Y-78711908D01*
X138688460Y-78687856D01*
X139177264Y-78485387D01*
X139275927Y-78218532D01*
X138303000Y-77245605D01*
X137330073Y-78218532D01*
X128152426Y-78218532D01*
X128193440Y-78016000D01*
X128193440Y-76801461D01*
X136657092Y-76801461D01*
X136681144Y-77451460D01*
X136883613Y-77940264D01*
X137150468Y-78038927D01*
X138123395Y-77066000D01*
X138482605Y-77066000D01*
X139455532Y-78038927D01*
X139722387Y-77940264D01*
X139926893Y-77389795D01*
X141167716Y-77389795D01*
X141416106Y-77990943D01*
X141875637Y-78451278D01*
X142476352Y-78700716D01*
X143126795Y-78701284D01*
X143727943Y-78452894D01*
X144188278Y-77993363D01*
X144437716Y-77392648D01*
X144438284Y-76742205D01*
X144189894Y-76141057D01*
X143730363Y-75680722D01*
X143129648Y-75431284D01*
X142479205Y-75430716D01*
X141878057Y-75679106D01*
X141417722Y-76138637D01*
X141168284Y-76739352D01*
X141167716Y-77389795D01*
X139926893Y-77389795D01*
X139948908Y-77330539D01*
X139924856Y-76680540D01*
X139722387Y-76191736D01*
X139455532Y-76093073D01*
X138482605Y-77066000D01*
X138123395Y-77066000D01*
X137150468Y-76093073D01*
X136883613Y-76191736D01*
X136657092Y-76801461D01*
X128193440Y-76801461D01*
X128193440Y-76416000D01*
X128149162Y-76180683D01*
X128010090Y-75964559D01*
X127935316Y-75913468D01*
X137330073Y-75913468D01*
X138303000Y-76886395D01*
X139275927Y-75913468D01*
X139177264Y-75646613D01*
X138567539Y-75420092D01*
X137917540Y-75444144D01*
X137428736Y-75646613D01*
X137330073Y-75913468D01*
X127935316Y-75913468D01*
X127797890Y-75819569D01*
X127638384Y-75787268D01*
X127977041Y-75413423D01*
X128137904Y-75025039D01*
X128015915Y-74803000D01*
X126873000Y-74803000D01*
X126873000Y-74823000D01*
X126619000Y-74823000D01*
X126619000Y-74803000D01*
X125476085Y-74803000D01*
X125354096Y-75025039D01*
X125514959Y-75413423D01*
X125852590Y-75786136D01*
X125710683Y-75812838D01*
X125494559Y-75951910D01*
X125349569Y-76164110D01*
X125298560Y-76416000D01*
X122555000Y-76416000D01*
X122555000Y-72136000D01*
X125282887Y-72136000D01*
X125392120Y-72685151D01*
X125703189Y-73150698D01*
X126107703Y-73420986D01*
X125890866Y-73523611D01*
X125514959Y-73938577D01*
X125354096Y-74326961D01*
X125476085Y-74549000D01*
X126619000Y-74549000D01*
X126619000Y-74529000D01*
X126873000Y-74529000D01*
X126873000Y-74549000D01*
X128015915Y-74549000D01*
X128137904Y-74326961D01*
X127977041Y-73938577D01*
X127601134Y-73523611D01*
X127384297Y-73420986D01*
X127788811Y-73150698D01*
X128099880Y-72685151D01*
X128209113Y-72136000D01*
X128127736Y-71726887D01*
X130899000Y-71726887D01*
X130899000Y-71783113D01*
X131008233Y-72332264D01*
X131319302Y-72797811D01*
X131784849Y-73108880D01*
X132334000Y-73218113D01*
X132883151Y-73108880D01*
X133348698Y-72797811D01*
X133659767Y-72332264D01*
X133692801Y-72166187D01*
X138010752Y-72166187D01*
X138228757Y-72693800D01*
X138632077Y-73097824D01*
X139159309Y-73316750D01*
X139730187Y-73317248D01*
X140257800Y-73099243D01*
X140661824Y-72695923D01*
X140880750Y-72168691D01*
X140881000Y-71882000D01*
X148142887Y-71882000D01*
X148252120Y-72431151D01*
X148563189Y-72896698D01*
X149028736Y-73207767D01*
X149577887Y-73317000D01*
X149634113Y-73317000D01*
X150183264Y-73207767D01*
X150648811Y-72896698D01*
X150959880Y-72431151D01*
X151069113Y-71882000D01*
X150959880Y-71332849D01*
X150648811Y-70867302D01*
X150183264Y-70556233D01*
X149634113Y-70447000D01*
X149577887Y-70447000D01*
X149028736Y-70556233D01*
X148563189Y-70867302D01*
X148252120Y-71332849D01*
X148142887Y-71882000D01*
X140881000Y-71882000D01*
X140881248Y-71597813D01*
X140663243Y-71070200D01*
X140259923Y-70666176D01*
X139732691Y-70447250D01*
X139161813Y-70446752D01*
X138634200Y-70664757D01*
X138230176Y-71068077D01*
X138011250Y-71595309D01*
X138010752Y-72166187D01*
X133692801Y-72166187D01*
X133769000Y-71783113D01*
X133769000Y-71726887D01*
X133659767Y-71177736D01*
X133348698Y-70712189D01*
X132883151Y-70401120D01*
X132334000Y-70291887D01*
X131784849Y-70401120D01*
X131319302Y-70712189D01*
X131008233Y-71177736D01*
X130899000Y-71726887D01*
X128127736Y-71726887D01*
X128099880Y-71586849D01*
X127788811Y-71121302D01*
X127323264Y-70810233D01*
X126774113Y-70701000D01*
X126717887Y-70701000D01*
X126168736Y-70810233D01*
X125703189Y-71121302D01*
X125392120Y-71586849D01*
X125282887Y-72136000D01*
X122555000Y-72136000D01*
X122555000Y-64870440D01*
X122705402Y-64870440D01*
X126580481Y-68745520D01*
X126765721Y-68869293D01*
X126889494Y-68951995D01*
X127254000Y-69024500D01*
X138369212Y-69024500D01*
X138632077Y-69287824D01*
X139159309Y-69506750D01*
X139730187Y-69507248D01*
X140257800Y-69289243D01*
X140661824Y-68885923D01*
X140880750Y-68358691D01*
X140881000Y-68072000D01*
X148142887Y-68072000D01*
X148252120Y-68621151D01*
X148563189Y-69086698D01*
X149028736Y-69397767D01*
X149577887Y-69507000D01*
X149634113Y-69507000D01*
X150183264Y-69397767D01*
X150648811Y-69086698D01*
X150959880Y-68621151D01*
X151069113Y-68072000D01*
X150959880Y-67522849D01*
X150648811Y-67057302D01*
X150183264Y-66746233D01*
X149634113Y-66637000D01*
X149577887Y-66637000D01*
X149028736Y-66746233D01*
X148563189Y-67057302D01*
X148252120Y-67522849D01*
X148142887Y-68072000D01*
X140881000Y-68072000D01*
X140881248Y-67787813D01*
X140663243Y-67260200D01*
X140259923Y-66856176D01*
X139732691Y-66637250D01*
X139161813Y-66636752D01*
X138634200Y-66854757D01*
X138368995Y-67119500D01*
X127648539Y-67119500D01*
X124187789Y-63658750D01*
X126594500Y-63658750D01*
X126594500Y-64349310D01*
X126691173Y-64582699D01*
X126869802Y-64761327D01*
X127103191Y-64858000D01*
X127793750Y-64858000D01*
X127952500Y-64699250D01*
X127952500Y-63500000D01*
X128206500Y-63500000D01*
X128206500Y-64699250D01*
X128365250Y-64858000D01*
X129055809Y-64858000D01*
X129289198Y-64761327D01*
X129467827Y-64582699D01*
X129564500Y-64349310D01*
X129564500Y-63658750D01*
X129405750Y-63500000D01*
X128206500Y-63500000D01*
X127952500Y-63500000D01*
X126753250Y-63500000D01*
X126594500Y-63658750D01*
X124187789Y-63658750D01*
X124052440Y-63523402D01*
X124052440Y-62523000D01*
X124028674Y-62396690D01*
X126594500Y-62396690D01*
X126594500Y-63087250D01*
X126753250Y-63246000D01*
X127952500Y-63246000D01*
X127952500Y-62046750D01*
X128206500Y-62046750D01*
X128206500Y-63246000D01*
X129405750Y-63246000D01*
X129564500Y-63087250D01*
X129564500Y-62523000D01*
X132106560Y-62523000D01*
X132106560Y-64223000D01*
X132150838Y-64458317D01*
X132289910Y-64674441D01*
X132502110Y-64819431D01*
X132754000Y-64870440D01*
X134454000Y-64870440D01*
X134689317Y-64826162D01*
X134905441Y-64687090D01*
X135050431Y-64474890D01*
X135101440Y-64223000D01*
X135101440Y-62523000D01*
X135057162Y-62287683D01*
X134918090Y-62071559D01*
X134705890Y-61926569D01*
X134454000Y-61875560D01*
X132754000Y-61875560D01*
X132518683Y-61919838D01*
X132302559Y-62058910D01*
X132157569Y-62271110D01*
X132106560Y-62523000D01*
X129564500Y-62523000D01*
X129564500Y-62396690D01*
X129467827Y-62163301D01*
X129289198Y-61984673D01*
X129055809Y-61888000D01*
X128365250Y-61888000D01*
X128206500Y-62046750D01*
X127952500Y-62046750D01*
X127793750Y-61888000D01*
X127103191Y-61888000D01*
X126869802Y-61984673D01*
X126691173Y-62163301D01*
X126594500Y-62396690D01*
X124028674Y-62396690D01*
X124008162Y-62287683D01*
X123869090Y-62071559D01*
X123656890Y-61926569D01*
X123405000Y-61875560D01*
X122555000Y-61875560D01*
X122555000Y-56634554D01*
X122818796Y-56634784D01*
X123419944Y-56386394D01*
X123880279Y-55926863D01*
X123894728Y-55892065D01*
X123908107Y-55924443D01*
X124367638Y-56384778D01*
X124968353Y-56634216D01*
X125618796Y-56634784D01*
X126219944Y-56386394D01*
X126680279Y-55926863D01*
X126689716Y-55904136D01*
X126698107Y-55924443D01*
X127157638Y-56384778D01*
X127758353Y-56634216D01*
X128408796Y-56634784D01*
X129009944Y-56386394D01*
X129470279Y-55926863D01*
X129479716Y-55904136D01*
X129488107Y-55924443D01*
X129947638Y-56384778D01*
X130548353Y-56634216D01*
X131198796Y-56634784D01*
X131799944Y-56386394D01*
X132260279Y-55926863D01*
X132274728Y-55892065D01*
X132288107Y-55924443D01*
X132747638Y-56384778D01*
X133348353Y-56634216D01*
X133998796Y-56634784D01*
X134599944Y-56386394D01*
X135010314Y-55976741D01*
X135417638Y-56384778D01*
X136018353Y-56634216D01*
X136668796Y-56634784D01*
X137269944Y-56386394D01*
X137730279Y-55926863D01*
X137739716Y-55904136D01*
X137748107Y-55924443D01*
X138207638Y-56384778D01*
X138808353Y-56634216D01*
X139458796Y-56634784D01*
X140059944Y-56386394D01*
X140520279Y-55926863D01*
X140529716Y-55904136D01*
X140538107Y-55924443D01*
X140997638Y-56384778D01*
X141598353Y-56634216D01*
X142248796Y-56634784D01*
X142849944Y-56386394D01*
X143310279Y-55926863D01*
X143559717Y-55326148D01*
X143560285Y-54675705D01*
X143311895Y-54074557D01*
X143170880Y-53933295D01*
X148549717Y-53933295D01*
X148798107Y-54534443D01*
X149257638Y-54994778D01*
X149858353Y-55244216D01*
X150508796Y-55244784D01*
X151109944Y-54996394D01*
X151570279Y-54536863D01*
X151819717Y-53936148D01*
X151820285Y-53285705D01*
X151571895Y-52684557D01*
X151112364Y-52224222D01*
X150511649Y-51974784D01*
X149861206Y-51974216D01*
X149260058Y-52222606D01*
X148799723Y-52682137D01*
X148550285Y-53282852D01*
X148549717Y-53933295D01*
X143170880Y-53933295D01*
X143060764Y-53822987D01*
X143198001Y-53685750D01*
X143198001Y-52336500D01*
X143452001Y-52336500D01*
X143452001Y-53685750D01*
X143610751Y-53844500D01*
X144451310Y-53844500D01*
X144684699Y-53747827D01*
X144863328Y-53569199D01*
X144960001Y-53335810D01*
X144960001Y-52495250D01*
X144801251Y-52336500D01*
X143452001Y-52336500D01*
X143198001Y-52336500D01*
X143178001Y-52336500D01*
X143178001Y-52082500D01*
X143198001Y-52082500D01*
X143198001Y-52062500D01*
X143452001Y-52062500D01*
X143452001Y-52082500D01*
X144801251Y-52082500D01*
X144960001Y-51923750D01*
X144960001Y-51083190D01*
X144895305Y-50927000D01*
X153797000Y-50927000D01*
X153797000Y-98171000D01*
G36*
X123052074Y-51056968D02*
X124025001Y-52029895D01*
X124997928Y-51056968D01*
X124949876Y-50927000D01*
X125655481Y-50927000D01*
X125300006Y-51281854D01*
X125177533Y-51236573D01*
X124204606Y-52209500D01*
X124218749Y-52223643D01*
X124039144Y-52403248D01*
X124025001Y-52389105D01*
X124010859Y-52403248D01*
X123831254Y-52223643D01*
X123845396Y-52209500D01*
X122872469Y-51236573D01*
X122629228Y-51326505D01*
X122611895Y-51284557D01*
X122555000Y-51227562D01*
X122555000Y-50927000D01*
X123100126Y-50927000D01*
X123052074Y-51056968D01*
X123052074Y-51056968D01*
G37*
X123052074Y-51056968D02*
X124025001Y-52029895D01*
X124997928Y-51056968D01*
X124949876Y-50927000D01*
X125655481Y-50927000D01*
X125300006Y-51281854D01*
X125177533Y-51236573D01*
X124204606Y-52209500D01*
X124218749Y-52223643D01*
X124039144Y-52403248D01*
X124025001Y-52389105D01*
X124010859Y-52403248D01*
X123831254Y-52223643D01*
X123845396Y-52209500D01*
X122872469Y-51236573D01*
X122629228Y-51326505D01*
X122611895Y-51284557D01*
X122555000Y-51227562D01*
X122555000Y-50927000D01*
X123100126Y-50927000D01*
X123052074Y-51056968D01*
M02*
