G04 #@! TF.FileFunction,Legend,Top*
%FSLAX46Y46*%
G04 Gerber Fmt 4.6, Leading zero omitted, Abs format (unit mm)*
G04 Created by KiCad (PCBNEW 4.0.6+dfsg1-1) date Sun Dec 10 15:34:36 2017*
%MOMM*%
%LPD*%
G01*
G04 APERTURE LIST*
%ADD10C,1.000000*%
%ADD11C,0.120000*%
%ADD12C,0.150000*%
G04 APERTURE END LIST*
D10*
D11*
X84155001Y-50309500D02*
X152465001Y-50309500D01*
X84155001Y-50309500D02*
X84155001Y-56899500D01*
X152465001Y-56899500D02*
X152465001Y-50309500D01*
X152465001Y-56899500D02*
X84155001Y-56899500D01*
D12*
X71234300Y-92867480D02*
X71234300Y-82265520D01*
X70835520Y-82265520D02*
X70835520Y-92867480D01*
X65534540Y-82265520D02*
X65534540Y-92867480D01*
X65036700Y-92867480D02*
X65036700Y-82265520D01*
X65534540Y-90063320D02*
X65036700Y-90063320D01*
X65534540Y-87566500D02*
X65036700Y-87566500D01*
X65036700Y-82468720D02*
X65534540Y-82468720D01*
X65534540Y-92666820D02*
X65036700Y-92666820D01*
X65036700Y-85069680D02*
X65534540Y-85069680D01*
X65036700Y-92864940D02*
X71234300Y-92864940D01*
X71234300Y-82270600D02*
X65036700Y-82270600D01*
D11*
X143803000Y-93996000D02*
X143803000Y-89496000D01*
X139803000Y-95246000D02*
X141303000Y-95246000D01*
X137303000Y-89496000D02*
X137303000Y-93996000D01*
X141303000Y-88246000D02*
X139803000Y-88246000D01*
X143803000Y-82566000D02*
X143803000Y-78066000D01*
X139803000Y-83816000D02*
X141303000Y-83816000D01*
X137303000Y-78066000D02*
X137303000Y-82566000D01*
X141303000Y-76816000D02*
X139803000Y-76816000D01*
X104880000Y-68779000D02*
X108480000Y-68779000D01*
X104355816Y-68051795D02*
G75*
G03X104880000Y-68779000I2324184J1122795D01*
G01*
X104323600Y-65830193D02*
G75*
G02X106680000Y-64329000I2356400J-1098807D01*
G01*
X109036400Y-65830193D02*
G75*
G03X106680000Y-64329000I-2356400J-1098807D01*
G01*
X109004184Y-68051795D02*
G75*
G02X108480000Y-68779000I-2324184J1122795D01*
G01*
X121936000Y-78546000D02*
G75*
G02X123936000Y-78546000I1000000J0D01*
G01*
X123936000Y-78546000D02*
X125586000Y-78546000D01*
X125586000Y-78546000D02*
X125586000Y-70806000D01*
X125586000Y-70806000D02*
X120286000Y-70806000D01*
X120286000Y-70806000D02*
X120286000Y-78546000D01*
X120286000Y-78546000D02*
X121936000Y-78546000D01*
X121936000Y-94294000D02*
G75*
G02X123936000Y-94294000I1000000J0D01*
G01*
X123936000Y-94294000D02*
X125586000Y-94294000D01*
X125586000Y-94294000D02*
X125586000Y-86554000D01*
X125586000Y-86554000D02*
X120286000Y-86554000D01*
X120286000Y-86554000D02*
X120286000Y-94294000D01*
X120286000Y-94294000D02*
X121936000Y-94294000D01*
X79890000Y-86601000D02*
X79890000Y-89421000D01*
X79890000Y-89421000D02*
X85210000Y-89421000D01*
X85210000Y-89421000D02*
X85210000Y-86601000D01*
X85210000Y-86601000D02*
X79890000Y-86601000D01*
X78750000Y-88011000D02*
X79890000Y-88011000D01*
X86350000Y-88011000D02*
X85210000Y-88011000D01*
X80730000Y-86601000D02*
X80730000Y-89421000D01*
X79890000Y-77965000D02*
X79890000Y-80785000D01*
X79890000Y-80785000D02*
X85210000Y-80785000D01*
X85210000Y-80785000D02*
X85210000Y-77965000D01*
X85210000Y-77965000D02*
X79890000Y-77965000D01*
X78750000Y-79375000D02*
X79890000Y-79375000D01*
X86350000Y-79375000D02*
X85210000Y-79375000D01*
X80730000Y-77965000D02*
X80730000Y-80785000D01*
X79890000Y-90919000D02*
X79890000Y-93739000D01*
X79890000Y-93739000D02*
X85210000Y-93739000D01*
X85210000Y-93739000D02*
X85210000Y-90919000D01*
X85210000Y-90919000D02*
X79890000Y-90919000D01*
X78750000Y-92329000D02*
X79890000Y-92329000D01*
X86350000Y-92329000D02*
X85210000Y-92329000D01*
X80730000Y-90919000D02*
X80730000Y-93739000D01*
X79890000Y-82283000D02*
X79890000Y-85103000D01*
X79890000Y-85103000D02*
X85210000Y-85103000D01*
X85210000Y-85103000D02*
X85210000Y-82283000D01*
X85210000Y-82283000D02*
X79890000Y-82283000D01*
X78750000Y-83693000D02*
X79890000Y-83693000D01*
X86350000Y-83693000D02*
X85210000Y-83693000D01*
X80730000Y-82283000D02*
X80730000Y-85103000D01*
X126686000Y-64643000D02*
X126686000Y-64703000D01*
X126686000Y-64703000D02*
X129346000Y-64703000D01*
X129346000Y-64703000D02*
X129346000Y-64643000D01*
X129346000Y-64643000D02*
X126686000Y-64643000D01*
X126686000Y-63373000D02*
X126686000Y-62043000D01*
X126686000Y-62043000D02*
X128016000Y-62043000D01*
X121225000Y-64643000D02*
X121225000Y-64703000D01*
X121225000Y-64703000D02*
X123885000Y-64703000D01*
X123885000Y-64703000D02*
X123885000Y-64643000D01*
X123885000Y-64643000D02*
X121225000Y-64643000D01*
X121225000Y-63373000D02*
X121225000Y-62043000D01*
X121225000Y-62043000D02*
X122555000Y-62043000D01*
X66742000Y-96393000D02*
X66742000Y-96453000D01*
X66742000Y-96453000D02*
X69402000Y-96453000D01*
X69402000Y-96453000D02*
X69402000Y-96393000D01*
X69402000Y-96393000D02*
X66742000Y-96393000D01*
X66742000Y-95123000D02*
X66742000Y-93793000D01*
X66742000Y-93793000D02*
X68072000Y-93793000D01*
X141316000Y-66762000D02*
X141316000Y-69382000D01*
X141316000Y-69382000D02*
X147736000Y-69382000D01*
X147736000Y-69382000D02*
X147736000Y-66762000D01*
X147736000Y-66762000D02*
X141316000Y-66762000D01*
X140426000Y-68072000D02*
X141316000Y-68072000D01*
X148626000Y-68072000D02*
X147736000Y-68072000D01*
X141316000Y-70572000D02*
X141316000Y-73192000D01*
X141316000Y-73192000D02*
X147736000Y-73192000D01*
X147736000Y-73192000D02*
X147736000Y-70572000D01*
X147736000Y-70572000D02*
X141316000Y-70572000D01*
X140426000Y-71882000D02*
X141316000Y-71882000D01*
X148626000Y-71882000D02*
X147736000Y-71882000D01*
X131024000Y-80045000D02*
X133644000Y-80045000D01*
X133644000Y-80045000D02*
X133644000Y-73625000D01*
X133644000Y-73625000D02*
X131024000Y-73625000D01*
X131024000Y-73625000D02*
X131024000Y-80045000D01*
X132334000Y-80935000D02*
X132334000Y-80045000D01*
X132334000Y-72735000D02*
X132334000Y-73625000D01*
X131024000Y-92872000D02*
X133644000Y-92872000D01*
X133644000Y-92872000D02*
X133644000Y-86452000D01*
X133644000Y-86452000D02*
X131024000Y-86452000D01*
X131024000Y-86452000D02*
X131024000Y-92872000D01*
X132334000Y-93762000D02*
X132334000Y-92872000D01*
X132334000Y-85562000D02*
X132334000Y-86452000D01*
X113371000Y-76108000D02*
X115991000Y-76108000D01*
X115991000Y-76108000D02*
X115991000Y-69688000D01*
X115991000Y-69688000D02*
X113371000Y-69688000D01*
X113371000Y-69688000D02*
X113371000Y-76108000D01*
X114681000Y-76998000D02*
X114681000Y-76108000D01*
X114681000Y-68798000D02*
X114681000Y-69688000D01*
X96306000Y-72228000D02*
X93686000Y-72228000D01*
X93686000Y-72228000D02*
X93686000Y-78648000D01*
X93686000Y-78648000D02*
X96306000Y-78648000D01*
X96306000Y-78648000D02*
X96306000Y-72228000D01*
X94996000Y-71338000D02*
X94996000Y-72228000D01*
X94996000Y-79538000D02*
X94996000Y-78648000D01*
X113371000Y-93888000D02*
X115991000Y-93888000D01*
X115991000Y-93888000D02*
X115991000Y-87468000D01*
X115991000Y-87468000D02*
X113371000Y-87468000D01*
X113371000Y-87468000D02*
X113371000Y-93888000D01*
X114681000Y-94778000D02*
X114681000Y-93888000D01*
X114681000Y-86578000D02*
X114681000Y-87468000D01*
X93686000Y-91348000D02*
X96306000Y-91348000D01*
X96306000Y-91348000D02*
X96306000Y-84928000D01*
X96306000Y-84928000D02*
X93686000Y-84928000D01*
X93686000Y-84928000D02*
X93686000Y-91348000D01*
X94996000Y-92238000D02*
X94996000Y-91348000D01*
X94996000Y-84038000D02*
X94996000Y-84928000D01*
X107426000Y-71568000D02*
G75*
G02X105426000Y-71568000I-1000000J0D01*
G01*
X105426000Y-71568000D02*
X103776000Y-71568000D01*
X103776000Y-71568000D02*
X103776000Y-92008000D01*
X103776000Y-92008000D02*
X109076000Y-92008000D01*
X109076000Y-92008000D02*
X109076000Y-71568000D01*
X109076000Y-71568000D02*
X107426000Y-71568000D01*
X132334000Y-62043000D02*
X132274000Y-62043000D01*
X132274000Y-62043000D02*
X132274000Y-64703000D01*
X132274000Y-64703000D02*
X132334000Y-64703000D01*
X132334000Y-64703000D02*
X132334000Y-62043000D01*
X133604000Y-62043000D02*
X134934000Y-62043000D01*
X134934000Y-62043000D02*
X134934000Y-63373000D01*
D12*
X104131668Y-47981881D02*
X104131668Y-48696167D01*
X104084048Y-48839024D01*
X103988810Y-48934262D01*
X103845953Y-48981881D01*
X103750715Y-48981881D01*
X105131668Y-48981881D02*
X104560239Y-48981881D01*
X104845953Y-48981881D02*
X104845953Y-47981881D01*
X104750715Y-48124738D01*
X104655477Y-48219976D01*
X104560239Y-48267595D01*
X72088761Y-87899833D02*
X72803047Y-87899833D01*
X72945904Y-87947453D01*
X73041142Y-88042691D01*
X73088761Y-88185548D01*
X73088761Y-88280786D01*
X72183999Y-87471262D02*
X72136380Y-87423643D01*
X72088761Y-87328405D01*
X72088761Y-87090309D01*
X72136380Y-86995071D01*
X72183999Y-86947452D01*
X72279237Y-86899833D01*
X72374475Y-86899833D01*
X72517332Y-86947452D01*
X73088761Y-87518881D01*
X73088761Y-86899833D01*
X136707762Y-93079333D02*
X136755381Y-92936476D01*
X136755381Y-92698380D01*
X136707762Y-92603142D01*
X136660143Y-92555523D01*
X136564905Y-92507904D01*
X136469667Y-92507904D01*
X136374429Y-92555523D01*
X136326810Y-92603142D01*
X136279190Y-92698380D01*
X136231571Y-92888857D01*
X136183952Y-92984095D01*
X136136333Y-93031714D01*
X136041095Y-93079333D01*
X135945857Y-93079333D01*
X135850619Y-93031714D01*
X135803000Y-92984095D01*
X135755381Y-92888857D01*
X135755381Y-92650761D01*
X135803000Y-92507904D01*
X135755381Y-92174571D02*
X136755381Y-91936476D01*
X136041095Y-91745999D01*
X136755381Y-91555523D01*
X135755381Y-91317428D01*
X136755381Y-90412666D02*
X136755381Y-90984095D01*
X136755381Y-90698381D02*
X135755381Y-90698381D01*
X135898238Y-90793619D01*
X135993476Y-90888857D01*
X136041095Y-90984095D01*
X136707762Y-81649333D02*
X136755381Y-81506476D01*
X136755381Y-81268380D01*
X136707762Y-81173142D01*
X136660143Y-81125523D01*
X136564905Y-81077904D01*
X136469667Y-81077904D01*
X136374429Y-81125523D01*
X136326810Y-81173142D01*
X136279190Y-81268380D01*
X136231571Y-81458857D01*
X136183952Y-81554095D01*
X136136333Y-81601714D01*
X136041095Y-81649333D01*
X135945857Y-81649333D01*
X135850619Y-81601714D01*
X135803000Y-81554095D01*
X135755381Y-81458857D01*
X135755381Y-81220761D01*
X135803000Y-81077904D01*
X135755381Y-80744571D02*
X136755381Y-80506476D01*
X136041095Y-80315999D01*
X136755381Y-80125523D01*
X135755381Y-79887428D01*
X135850619Y-79554095D02*
X135803000Y-79506476D01*
X135755381Y-79411238D01*
X135755381Y-79173142D01*
X135803000Y-79077904D01*
X135850619Y-79030285D01*
X135945857Y-78982666D01*
X136041095Y-78982666D01*
X136183952Y-79030285D01*
X136755381Y-79601714D01*
X136755381Y-78982666D01*
X105918095Y-62821381D02*
X105918095Y-63630905D01*
X105965714Y-63726143D01*
X106013333Y-63773762D01*
X106108571Y-63821381D01*
X106299048Y-63821381D01*
X106394286Y-63773762D01*
X106441905Y-63726143D01*
X106489524Y-63630905D01*
X106489524Y-62821381D01*
X107489524Y-63821381D02*
X106918095Y-63821381D01*
X107203809Y-63821381D02*
X107203809Y-62821381D01*
X107108571Y-62964238D01*
X107013333Y-63059476D01*
X106918095Y-63107095D01*
X122174095Y-78998381D02*
X122174095Y-79807905D01*
X122221714Y-79903143D01*
X122269333Y-79950762D01*
X122364571Y-79998381D01*
X122555048Y-79998381D01*
X122650286Y-79950762D01*
X122697905Y-79903143D01*
X122745524Y-79807905D01*
X122745524Y-78998381D01*
X123174095Y-79093619D02*
X123221714Y-79046000D01*
X123316952Y-78998381D01*
X123555048Y-78998381D01*
X123650286Y-79046000D01*
X123697905Y-79093619D01*
X123745524Y-79188857D01*
X123745524Y-79284095D01*
X123697905Y-79426952D01*
X123126476Y-79998381D01*
X123745524Y-79998381D01*
X122174095Y-94746381D02*
X122174095Y-95555905D01*
X122221714Y-95651143D01*
X122269333Y-95698762D01*
X122364571Y-95746381D01*
X122555048Y-95746381D01*
X122650286Y-95698762D01*
X122697905Y-95651143D01*
X122745524Y-95555905D01*
X122745524Y-94746381D01*
X123126476Y-94746381D02*
X123745524Y-94746381D01*
X123412190Y-95127333D01*
X123555048Y-95127333D01*
X123650286Y-95174952D01*
X123697905Y-95222571D01*
X123745524Y-95317810D01*
X123745524Y-95555905D01*
X123697905Y-95651143D01*
X123650286Y-95698762D01*
X123555048Y-95746381D01*
X123269333Y-95746381D01*
X123174095Y-95698762D01*
X123126476Y-95651143D01*
X81811905Y-86053381D02*
X81811905Y-85053381D01*
X82050000Y-85053381D01*
X82192858Y-85101000D01*
X82288096Y-85196238D01*
X82335715Y-85291476D01*
X82383334Y-85481952D01*
X82383334Y-85624810D01*
X82335715Y-85815286D01*
X82288096Y-85910524D01*
X82192858Y-86005762D01*
X82050000Y-86053381D01*
X81811905Y-86053381D01*
X83335715Y-86053381D02*
X82764286Y-86053381D01*
X83050000Y-86053381D02*
X83050000Y-85053381D01*
X82954762Y-85196238D01*
X82859524Y-85291476D01*
X82764286Y-85339095D01*
X81811905Y-77417381D02*
X81811905Y-76417381D01*
X82050000Y-76417381D01*
X82192858Y-76465000D01*
X82288096Y-76560238D01*
X82335715Y-76655476D01*
X82383334Y-76845952D01*
X82383334Y-76988810D01*
X82335715Y-77179286D01*
X82288096Y-77274524D01*
X82192858Y-77369762D01*
X82050000Y-77417381D01*
X81811905Y-77417381D01*
X82764286Y-76512619D02*
X82811905Y-76465000D01*
X82907143Y-76417381D01*
X83145239Y-76417381D01*
X83240477Y-76465000D01*
X83288096Y-76512619D01*
X83335715Y-76607857D01*
X83335715Y-76703095D01*
X83288096Y-76845952D01*
X82716667Y-77417381D01*
X83335715Y-77417381D01*
X81811905Y-90371381D02*
X81811905Y-89371381D01*
X82050000Y-89371381D01*
X82192858Y-89419000D01*
X82288096Y-89514238D01*
X82335715Y-89609476D01*
X82383334Y-89799952D01*
X82383334Y-89942810D01*
X82335715Y-90133286D01*
X82288096Y-90228524D01*
X82192858Y-90323762D01*
X82050000Y-90371381D01*
X81811905Y-90371381D01*
X82716667Y-89371381D02*
X83335715Y-89371381D01*
X83002381Y-89752333D01*
X83145239Y-89752333D01*
X83240477Y-89799952D01*
X83288096Y-89847571D01*
X83335715Y-89942810D01*
X83335715Y-90180905D01*
X83288096Y-90276143D01*
X83240477Y-90323762D01*
X83145239Y-90371381D01*
X82859524Y-90371381D01*
X82764286Y-90323762D01*
X82716667Y-90276143D01*
X81811905Y-81735381D02*
X81811905Y-80735381D01*
X82050000Y-80735381D01*
X82192858Y-80783000D01*
X82288096Y-80878238D01*
X82335715Y-80973476D01*
X82383334Y-81163952D01*
X82383334Y-81306810D01*
X82335715Y-81497286D01*
X82288096Y-81592524D01*
X82192858Y-81687762D01*
X82050000Y-81735381D01*
X81811905Y-81735381D01*
X83240477Y-81068714D02*
X83240477Y-81735381D01*
X83002381Y-80687762D02*
X82764286Y-81402048D01*
X83383334Y-81402048D01*
X127682667Y-60495381D02*
X127682667Y-61209667D01*
X127635047Y-61352524D01*
X127539809Y-61447762D01*
X127396952Y-61495381D01*
X127301714Y-61495381D01*
X128587429Y-60828714D02*
X128587429Y-61495381D01*
X128349333Y-60447762D02*
X128111238Y-61162048D01*
X128730286Y-61162048D01*
X122221667Y-60495381D02*
X122221667Y-61209667D01*
X122174047Y-61352524D01*
X122078809Y-61447762D01*
X121935952Y-61495381D01*
X121840714Y-61495381D01*
X123174048Y-60495381D02*
X122697857Y-60495381D01*
X122650238Y-60971571D01*
X122697857Y-60923952D01*
X122793095Y-60876333D01*
X123031191Y-60876333D01*
X123126429Y-60923952D01*
X123174048Y-60971571D01*
X123221667Y-61066810D01*
X123221667Y-61304905D01*
X123174048Y-61400143D01*
X123126429Y-61447762D01*
X123031191Y-61495381D01*
X122793095Y-61495381D01*
X122697857Y-61447762D01*
X122650238Y-61400143D01*
X67738667Y-92245381D02*
X67738667Y-92959667D01*
X67691047Y-93102524D01*
X67595809Y-93197762D01*
X67452952Y-93245381D01*
X67357714Y-93245381D01*
X68262476Y-93245381D02*
X68452952Y-93245381D01*
X68548191Y-93197762D01*
X68595810Y-93150143D01*
X68691048Y-93007286D01*
X68738667Y-92816810D01*
X68738667Y-92435857D01*
X68691048Y-92340619D01*
X68643429Y-92293000D01*
X68548191Y-92245381D01*
X68357714Y-92245381D01*
X68262476Y-92293000D01*
X68214857Y-92340619D01*
X68167238Y-92435857D01*
X68167238Y-92673952D01*
X68214857Y-92769190D01*
X68262476Y-92816810D01*
X68357714Y-92864429D01*
X68548191Y-92864429D01*
X68643429Y-92816810D01*
X68691048Y-92769190D01*
X68738667Y-92673952D01*
X144359334Y-66214381D02*
X144026000Y-65738190D01*
X143787905Y-66214381D02*
X143787905Y-65214381D01*
X144168858Y-65214381D01*
X144264096Y-65262000D01*
X144311715Y-65309619D01*
X144359334Y-65404857D01*
X144359334Y-65547714D01*
X144311715Y-65642952D01*
X144264096Y-65690571D01*
X144168858Y-65738190D01*
X143787905Y-65738190D01*
X145311715Y-66214381D02*
X144740286Y-66214381D01*
X145026000Y-66214381D02*
X145026000Y-65214381D01*
X144930762Y-65357238D01*
X144835524Y-65452476D01*
X144740286Y-65500095D01*
X144359334Y-70024381D02*
X144026000Y-69548190D01*
X143787905Y-70024381D02*
X143787905Y-69024381D01*
X144168858Y-69024381D01*
X144264096Y-69072000D01*
X144311715Y-69119619D01*
X144359334Y-69214857D01*
X144359334Y-69357714D01*
X144311715Y-69452952D01*
X144264096Y-69500571D01*
X144168858Y-69548190D01*
X143787905Y-69548190D01*
X144740286Y-69119619D02*
X144787905Y-69072000D01*
X144883143Y-69024381D01*
X145121239Y-69024381D01*
X145216477Y-69072000D01*
X145264096Y-69119619D01*
X145311715Y-69214857D01*
X145311715Y-69310095D01*
X145264096Y-69452952D01*
X144692667Y-70024381D01*
X145311715Y-70024381D01*
X130476381Y-77001666D02*
X130000190Y-77335000D01*
X130476381Y-77573095D02*
X129476381Y-77573095D01*
X129476381Y-77192142D01*
X129524000Y-77096904D01*
X129571619Y-77049285D01*
X129666857Y-77001666D01*
X129809714Y-77001666D01*
X129904952Y-77049285D01*
X129952571Y-77096904D01*
X130000190Y-77192142D01*
X130000190Y-77573095D01*
X129476381Y-76668333D02*
X129476381Y-76049285D01*
X129857333Y-76382619D01*
X129857333Y-76239761D01*
X129904952Y-76144523D01*
X129952571Y-76096904D01*
X130047810Y-76049285D01*
X130285905Y-76049285D01*
X130381143Y-76096904D01*
X130428762Y-76144523D01*
X130476381Y-76239761D01*
X130476381Y-76525476D01*
X130428762Y-76620714D01*
X130381143Y-76668333D01*
X130476381Y-89828666D02*
X130000190Y-90162000D01*
X130476381Y-90400095D02*
X129476381Y-90400095D01*
X129476381Y-90019142D01*
X129524000Y-89923904D01*
X129571619Y-89876285D01*
X129666857Y-89828666D01*
X129809714Y-89828666D01*
X129904952Y-89876285D01*
X129952571Y-89923904D01*
X130000190Y-90019142D01*
X130000190Y-90400095D01*
X129809714Y-88971523D02*
X130476381Y-88971523D01*
X129428762Y-89209619D02*
X130143048Y-89447714D01*
X130143048Y-88828666D01*
X112823381Y-73064666D02*
X112347190Y-73398000D01*
X112823381Y-73636095D02*
X111823381Y-73636095D01*
X111823381Y-73255142D01*
X111871000Y-73159904D01*
X111918619Y-73112285D01*
X112013857Y-73064666D01*
X112156714Y-73064666D01*
X112251952Y-73112285D01*
X112299571Y-73159904D01*
X112347190Y-73255142D01*
X112347190Y-73636095D01*
X111823381Y-72159904D02*
X111823381Y-72636095D01*
X112299571Y-72683714D01*
X112251952Y-72636095D01*
X112204333Y-72540857D01*
X112204333Y-72302761D01*
X112251952Y-72207523D01*
X112299571Y-72159904D01*
X112394810Y-72112285D01*
X112632905Y-72112285D01*
X112728143Y-72159904D01*
X112775762Y-72207523D01*
X112823381Y-72302761D01*
X112823381Y-72540857D01*
X112775762Y-72636095D01*
X112728143Y-72683714D01*
X97758381Y-75604666D02*
X97282190Y-75938000D01*
X97758381Y-76176095D02*
X96758381Y-76176095D01*
X96758381Y-75795142D01*
X96806000Y-75699904D01*
X96853619Y-75652285D01*
X96948857Y-75604666D01*
X97091714Y-75604666D01*
X97186952Y-75652285D01*
X97234571Y-75699904D01*
X97282190Y-75795142D01*
X97282190Y-76176095D01*
X96758381Y-74747523D02*
X96758381Y-74938000D01*
X96806000Y-75033238D01*
X96853619Y-75080857D01*
X96996476Y-75176095D01*
X97186952Y-75223714D01*
X97567905Y-75223714D01*
X97663143Y-75176095D01*
X97710762Y-75128476D01*
X97758381Y-75033238D01*
X97758381Y-74842761D01*
X97710762Y-74747523D01*
X97663143Y-74699904D01*
X97567905Y-74652285D01*
X97329810Y-74652285D01*
X97234571Y-74699904D01*
X97186952Y-74747523D01*
X97139333Y-74842761D01*
X97139333Y-75033238D01*
X97186952Y-75128476D01*
X97234571Y-75176095D01*
X97329810Y-75223714D01*
X112823381Y-90844666D02*
X112347190Y-91178000D01*
X112823381Y-91416095D02*
X111823381Y-91416095D01*
X111823381Y-91035142D01*
X111871000Y-90939904D01*
X111918619Y-90892285D01*
X112013857Y-90844666D01*
X112156714Y-90844666D01*
X112251952Y-90892285D01*
X112299571Y-90939904D01*
X112347190Y-91035142D01*
X112347190Y-91416095D01*
X112251952Y-90273238D02*
X112204333Y-90368476D01*
X112156714Y-90416095D01*
X112061476Y-90463714D01*
X112013857Y-90463714D01*
X111918619Y-90416095D01*
X111871000Y-90368476D01*
X111823381Y-90273238D01*
X111823381Y-90082761D01*
X111871000Y-89987523D01*
X111918619Y-89939904D01*
X112013857Y-89892285D01*
X112061476Y-89892285D01*
X112156714Y-89939904D01*
X112204333Y-89987523D01*
X112251952Y-90082761D01*
X112251952Y-90273238D01*
X112299571Y-90368476D01*
X112347190Y-90416095D01*
X112442429Y-90463714D01*
X112632905Y-90463714D01*
X112728143Y-90416095D01*
X112775762Y-90368476D01*
X112823381Y-90273238D01*
X112823381Y-90082761D01*
X112775762Y-89987523D01*
X112728143Y-89939904D01*
X112632905Y-89892285D01*
X112442429Y-89892285D01*
X112347190Y-89939904D01*
X112299571Y-89987523D01*
X112251952Y-90082761D01*
X93138381Y-88304666D02*
X92662190Y-88638000D01*
X93138381Y-88876095D02*
X92138381Y-88876095D01*
X92138381Y-88495142D01*
X92186000Y-88399904D01*
X92233619Y-88352285D01*
X92328857Y-88304666D01*
X92471714Y-88304666D01*
X92566952Y-88352285D01*
X92614571Y-88399904D01*
X92662190Y-88495142D01*
X92662190Y-88876095D01*
X93138381Y-87828476D02*
X93138381Y-87638000D01*
X93090762Y-87542761D01*
X93043143Y-87495142D01*
X92900286Y-87399904D01*
X92709810Y-87352285D01*
X92328857Y-87352285D01*
X92233619Y-87399904D01*
X92186000Y-87447523D01*
X92138381Y-87542761D01*
X92138381Y-87733238D01*
X92186000Y-87828476D01*
X92233619Y-87876095D01*
X92328857Y-87923714D01*
X92566952Y-87923714D01*
X92662190Y-87876095D01*
X92709810Y-87828476D01*
X92757429Y-87733238D01*
X92757429Y-87542761D01*
X92709810Y-87447523D01*
X92662190Y-87399904D01*
X92566952Y-87352285D01*
X105664095Y-70020381D02*
X105664095Y-70829905D01*
X105711714Y-70925143D01*
X105759333Y-70972762D01*
X105854571Y-71020381D01*
X106045048Y-71020381D01*
X106140286Y-70972762D01*
X106187905Y-70925143D01*
X106235524Y-70829905D01*
X106235524Y-70020381D01*
X107187905Y-70020381D02*
X106711714Y-70020381D01*
X106664095Y-70496571D01*
X106711714Y-70448952D01*
X106806952Y-70401333D01*
X107045048Y-70401333D01*
X107140286Y-70448952D01*
X107187905Y-70496571D01*
X107235524Y-70591810D01*
X107235524Y-70829905D01*
X107187905Y-70925143D01*
X107140286Y-70972762D01*
X107045048Y-71020381D01*
X106806952Y-71020381D01*
X106711714Y-70972762D01*
X106664095Y-70925143D01*
X68008667Y-47941381D02*
X67675333Y-47465190D01*
X67437238Y-47941381D02*
X67437238Y-46941381D01*
X67818191Y-46941381D01*
X67913429Y-46989000D01*
X67961048Y-47036619D01*
X68008667Y-47131857D01*
X68008667Y-47274714D01*
X67961048Y-47369952D01*
X67913429Y-47417571D01*
X67818191Y-47465190D01*
X67437238Y-47465190D01*
X68437238Y-47417571D02*
X68770572Y-47417571D01*
X68913429Y-47941381D02*
X68437238Y-47941381D01*
X68437238Y-46941381D01*
X68913429Y-46941381D01*
X69675334Y-47417571D02*
X69342000Y-47417571D01*
X69342000Y-47941381D02*
X69342000Y-46941381D01*
X69818191Y-46941381D01*
X70342000Y-46941381D02*
X70342000Y-47179476D01*
X70103905Y-47084238D02*
X70342000Y-47179476D01*
X70580096Y-47084238D01*
X70199143Y-47369952D02*
X70342000Y-47179476D01*
X70484858Y-47369952D01*
X71103905Y-46941381D02*
X71103905Y-47179476D01*
X70865810Y-47084238D02*
X71103905Y-47179476D01*
X71342001Y-47084238D01*
X70961048Y-47369952D02*
X71103905Y-47179476D01*
X71246763Y-47369952D01*
X148526667Y-90232381D02*
X148193333Y-89756190D01*
X147955238Y-90232381D02*
X147955238Y-89232381D01*
X148336191Y-89232381D01*
X148431429Y-89280000D01*
X148479048Y-89327619D01*
X148526667Y-89422857D01*
X148526667Y-89565714D01*
X148479048Y-89660952D01*
X148431429Y-89708571D01*
X148336191Y-89756190D01*
X147955238Y-89756190D01*
X148955238Y-89708571D02*
X149288572Y-89708571D01*
X149431429Y-90232381D02*
X148955238Y-90232381D01*
X148955238Y-89232381D01*
X149431429Y-89232381D01*
X150193334Y-89708571D02*
X149860000Y-89708571D01*
X149860000Y-90232381D02*
X149860000Y-89232381D01*
X150336191Y-89232381D01*
X150860000Y-89232381D02*
X150860000Y-89470476D01*
X150621905Y-89375238D02*
X150860000Y-89470476D01*
X151098096Y-89375238D01*
X150717143Y-89660952D02*
X150860000Y-89470476D01*
X151002858Y-89660952D01*
X151621905Y-89232381D02*
X151621905Y-89470476D01*
X151383810Y-89375238D02*
X151621905Y-89470476D01*
X151860001Y-89375238D01*
X151479048Y-89660952D02*
X151621905Y-89470476D01*
X151764763Y-89660952D01*
X135386381Y-63706333D02*
X136100667Y-63706333D01*
X136243524Y-63753953D01*
X136338762Y-63849191D01*
X136386381Y-63992048D01*
X136386381Y-64087286D01*
X135386381Y-63325381D02*
X135386381Y-62706333D01*
X135767333Y-63039667D01*
X135767333Y-62896809D01*
X135814952Y-62801571D01*
X135862571Y-62753952D01*
X135957810Y-62706333D01*
X136195905Y-62706333D01*
X136291143Y-62753952D01*
X136338762Y-62801571D01*
X136386381Y-62896809D01*
X136386381Y-63182524D01*
X136338762Y-63277762D01*
X136291143Y-63325381D01*
M02*
